<?xml version="1.0" encoding="UTF-8" standalone="no"?>
<!-- Created with Inkscape (http://www.inkscape.org/) -->

<svg
   version="1.1"
   id="svg824"
   xml:space="preserve"
   width="699.11993"
   height="381.47128"
   viewBox="0 0 699.11993 381.47128"
   sodipodi:docname="porous_media_sand.pdf"
   inkscape:version="1.1.2 (b8e25be8, 2022-02-05)"
   xmlns:inkscape="http://www.inkscape.org/namespaces/inkscape"
   xmlns:sodipodi="http://sodipodi.sourceforge.net/DTD/sodipodi-0.dtd"
   xmlns="http://www.w3.org/2000/svg"
   xmlns:svg="http://www.w3.org/2000/svg"><defs
     id="defs828"><radialGradient
       fx="326.34375"
       fy="523.45703"
       cx="326.34375"
       cy="523.45703"
       r="18.222656"
       gradientUnits="userSpaceOnUse"
       gradientTransform="matrix(0.8,0,0,0.598468,-188.31981,-219.31586)"
       spreadMethod="pad"
       id="radialGradient848"><stop
         style="stop-opacity:1;stop-color:#969696"
         offset="0"
         id="stop844" /><stop
         style="stop-opacity:1;stop-color:#c8c8c8"
         offset="1"
         id="stop846" /></radialGradient><radialGradient
       fx="277.71875"
       fy="607.44531"
       cx="277.71875"
       cy="607.44531"
       r="16.714844"
       gradientUnits="userSpaceOnUse"
       gradientTransform="matrix(0.8,0,0,0.829552,-188.31981,-342.75996)"
       spreadMethod="pad"
       id="radialGradient862"><stop
         style="stop-opacity:1;stop-color:#969696"
         offset="0"
         id="stop858" /><stop
         style="stop-opacity:1;stop-color:#c8c8c8"
         offset="1"
         id="stop860" /></radialGradient><radialGradient
       fx="284.51562"
       fy="539.02734"
       cx="284.51562"
       cy="539.02734"
       r="20.667969"
       gradientUnits="userSpaceOnUse"
       gradientTransform="matrix(0.8,0,0,0.571647,-188.31981,-201.72006)"
       spreadMethod="pad"
       id="radialGradient876"><stop
         style="stop-opacity:1;stop-color:#969696"
         offset="0"
         id="stop872" /><stop
         style="stop-opacity:1;stop-color:#c8c8c8"
         offset="1"
         id="stop874" /></radialGradient><radialGradient
       fx="322.21094"
       fy="494.61719"
       cx="322.21094"
       cy="494.61719"
       r="16.289062"
       gradientUnits="userSpaceOnUse"
       gradientTransform="matrix(0.8,0,0,0.771292,-188.31981,-310.60926)"
       spreadMethod="pad"
       id="radialGradient890"><stop
         style="stop-opacity:1;stop-color:#969696"
         offset="0"
         id="stop886" /><stop
         style="stop-opacity:1;stop-color:#c8c8c8"
         offset="1"
         id="stop888" /></radialGradient><radialGradient
       fx="370.62891"
       fy="438.28125"
       cx="370.62891"
       cy="438.28125"
       r="18.386719"
       gradientUnits="userSpaceOnUse"
       gradientTransform="matrix(0.8,0,0,0.748472,-188.31981,-302.2248)"
       spreadMethod="pad"
       id="radialGradient904"><stop
         style="stop-opacity:1;stop-color:#969696"
         offset="0"
         id="stop900" /><stop
         style="stop-opacity:1;stop-color:#c8c8c8"
         offset="1"
         id="stop902" /></radialGradient><radialGradient
       fx="319.60156"
       fy="551.44141"
       cx="319.60156"
       cy="551.44141"
       r="21.597656"
       gradientUnits="userSpaceOnUse"
       gradientTransform="matrix(0.8,0,0,0.786785,-188.31981,-317.52132)"
       spreadMethod="pad"
       id="radialGradient918"><stop
         style="stop-opacity:1;stop-color:#969696"
         offset="0"
         id="stop914" /><stop
         style="stop-opacity:1;stop-color:#c8c8c8"
         offset="1"
         id="stop916" /></radialGradient><radialGradient
       fx="322.63281"
       fy="607.27734"
       cx="322.63281"
       cy="607.27734"
       r="21.851562"
       gradientUnits="userSpaceOnUse"
       gradientTransform="matrix(0.8,0,0,0.621218,-188.31981,-216.23834)"
       spreadMethod="pad"
       id="radialGradient932"><stop
         style="stop-opacity:1;stop-color:#969696"
         offset="0"
         id="stop928" /><stop
         style="stop-opacity:1;stop-color:#c8c8c8"
         offset="1"
         id="stop930" /></radialGradient><radialGradient
       fx="285.17188"
       fy="520.75"
       cx="285.17188"
       cy="520.75"
       r="25.269531"
       gradientUnits="userSpaceOnUse"
       gradientTransform="matrix(0.8,0,0,0.403836,-188.31981,-118.50666)"
       spreadMethod="pad"
       id="radialGradient946"><stop
         style="stop-opacity:1;stop-color:#969696"
         offset="0"
         id="stop942" /><stop
         style="stop-opacity:1;stop-color:#c8c8c8"
         offset="1"
         id="stop944" /></radialGradient><radialGradient
       fx="279.19141"
       fy="443.60156"
       cx="279.19141"
       cy="443.60156"
       r="17.648438"
       gradientUnits="userSpaceOnUse"
       gradientTransform="matrix(0.8,0,0,0.75333,-188.31981,-304.1056)"
       spreadMethod="pad"
       id="radialGradient960"><stop
         style="stop-opacity:1;stop-color:#969696"
         offset="0"
         id="stop956" /><stop
         style="stop-opacity:1;stop-color:#c8c8c8"
         offset="1"
         id="stop958" /></radialGradient><radialGradient
       fx="275.91016"
       fy="564.08203"
       cx="275.91016"
       cy="564.08203"
       r="15.253906"
       gradientUnits="userSpaceOnUse"
       gradientTransform="matrix(0.8,0,0,0.815812,-188.31981,-333.72789)"
       spreadMethod="pad"
       id="radialGradient974"><stop
         style="stop-opacity:1;stop-color:#969696"
         offset="0"
         id="stop970" /><stop
         style="stop-opacity:1;stop-color:#c8c8c8"
         offset="1"
         id="stop972" /></radialGradient><radialGradient
       fx="313.08203"
       fy="464.375"
       cx="313.08203"
       cy="464.375"
       r="21.550781"
       gradientUnits="userSpaceOnUse"
       gradientTransform="matrix(0.8,0,0,0.618647,-188.31981,-240.59266)"
       spreadMethod="pad"
       id="radialGradient988"><stop
         style="stop-opacity:1;stop-color:#969696"
         offset="0"
         id="stop984" /><stop
         style="stop-opacity:1;stop-color:#c8c8c8"
         offset="1"
         id="stop986" /></radialGradient><radialGradient
       fx="302.94531"
       fy="429.44922"
       cx="302.94531"
       cy="429.44922"
       r="15.484375"
       gradientUnits="userSpaceOnUse"
       gradientTransform="matrix(0.8,0,0,0.970423,-188.31981,-397.99669)"
       spreadMethod="pad"
       id="radialGradient1002"><stop
         style="stop-opacity:1;stop-color:#969696"
         offset="0"
         id="stop998" /><stop
         style="stop-opacity:1;stop-color:#c8c8c8"
         offset="1"
         id="stop1000" /></radialGradient><radialGradient
       fx="357.53125"
       fy="503.10156"
       cx="357.53125"
       cy="503.10156"
       r="20.1875"
       gradientUnits="userSpaceOnUse"
       gradientTransform="matrix(0.8,0,0,0.64686,-188.31981,-247.76361)"
       spreadMethod="pad"
       id="radialGradient1016"><stop
         style="stop-opacity:1;stop-color:#969696"
         offset="0"
         id="stop1012" /><stop
         style="stop-opacity:1;stop-color:#c8c8c8"
         offset="1"
         id="stop1014" /></radialGradient><radialGradient
       fx="334.73828"
       fy="443.41406"
       cx="334.73828"
       cy="443.41406"
       r="18.550781"
       gradientUnits="userSpaceOnUse"
       gradientTransform="matrix(0.8,0,0,0.656013,-188.31981,-260.96304)"
       spreadMethod="pad"
       id="radialGradient1030"><stop
         style="stop-opacity:1;stop-color:#969696"
         offset="0"
         id="stop1026" /><stop
         style="stop-opacity:1;stop-color:#c8c8c8"
         offset="1"
         id="stop1028" /></radialGradient><radialGradient
       fx="283.9375"
       fy="484.95703"
       cx="283.9375"
       cy="484.95703"
       r="22.578125"
       gradientUnits="userSpaceOnUse"
       gradientTransform="matrix(0.8,0,0,0.866038,-188.31981,-356.83432)"
       spreadMethod="pad"
       id="radialGradient1044"><stop
         style="stop-opacity:1;stop-color:#969696"
         offset="0"
         id="stop1040" /><stop
         style="stop-opacity:1;stop-color:#c8c8c8"
         offset="1"
         id="stop1042" /></radialGradient><radialGradient
       fx="343.32031"
       fy="579.83984"
       cx="343.32031"
       cy="579.83984"
       r="25.222656"
       gradientUnits="userSpaceOnUse"
       gradientTransform="matrix(0.8,0,0,0.427466,-188.31981,-108.79796)"
       spreadMethod="pad"
       id="radialGradient1058"><stop
         style="stop-opacity:1;stop-color:#969696"
         offset="0"
         id="stop1054" /><stop
         style="stop-opacity:1;stop-color:#c8c8c8"
         offset="1"
         id="stop1056" /></radialGradient><radialGradient
       fx="357.36719"
       fy="470.72656"
       cx="357.36719"
       cy="470.72656"
       r="23.671875"
       gradientUnits="userSpaceOnUse"
       gradientTransform="matrix(0.8,0,0,0.552404,-188.31981,-208.25917)"
       spreadMethod="pad"
       id="radialGradient1072"><stop
         style="stop-opacity:1;stop-color:#969696"
         offset="0"
         id="stop1068" /><stop
         style="stop-opacity:1;stop-color:#c8c8c8"
         offset="1"
         id="stop1070" /></radialGradient><radialGradient
       fx="299.73047"
       fy="583.875"
       cx="299.73047"
       cy="583.875"
       r="21.734375"
       gradientUnits="userSpaceOnUse"
       gradientTransform="matrix(0.8,0,0,0.574611,-188.31981,-193.20941)"
       spreadMethod="pad"
       id="radialGradient1086"><stop
         style="stop-opacity:1;stop-color:#969696"
         offset="0"
         id="stop1082" /><stop
         style="stop-opacity:1;stop-color:#c8c8c8"
         offset="1"
         id="stop1084" /></radialGradient><radialGradient
       fx="360.94922"
       fy="544.15234"
       cx="360.94922"
       cy="544.15234"
       r="19.257812"
       gradientUnits="userSpaceOnUse"
       gradientTransform="matrix(0.8,0,0,1.098071,-188.31981,-487.00447)"
       spreadMethod="pad"
       id="radialGradient1100"><stop
         style="stop-opacity:1;stop-color:#969696"
         offset="0"
         id="stop1096" /><stop
         style="stop-opacity:1;stop-color:#c8c8c8"
         offset="1"
         id="stop1098" /></radialGradient><radialGradient
       fx="393.79297"
       fy="564.70703"
       cx="393.79297"
       cy="564.70703"
       r="14.882812"
       gradientUnits="userSpaceOnUse"
       gradientTransform="matrix(0.8,0,0,0.906096,-188.31981,-384.72184)"
       spreadMethod="pad"
       id="radialGradient1114"><stop
         style="stop-opacity:1;stop-color:#969696"
         offset="0"
         id="stop1110" /><stop
         style="stop-opacity:1;stop-color:#c8c8c8"
         offset="1"
         id="stop1112" /></radialGradient><radialGradient
       fx="396.16016"
       fy="454.30469"
       cx="396.16016"
       cy="454.30469"
       r="13.351562"
       gradientUnits="userSpaceOnUse"
       gradientTransform="matrix(0.8,0,0,1.2474,-188.31981,-528.06461)"
       spreadMethod="pad"
       id="radialGradient1128"><stop
         style="stop-opacity:1;stop-color:#969696"
         offset="0"
         id="stop1124" /><stop
         style="stop-opacity:1;stop-color:#c8c8c8"
         offset="1"
         id="stop1126" /></radialGradient><radialGradient
       fx="327.98438"
       fy="637.15234"
       cx="327.98438"
       cy="637.15234"
       r="16.984375"
       gradientUnits="userSpaceOnUse"
       gradientTransform="matrix(0.8,0,0,0.715959,-188.31981,-271.26174)"
       spreadMethod="pad"
       id="radialGradient1142"><stop
         style="stop-opacity:1;stop-color:#969696"
         offset="0"
         id="stop1138" /><stop
         style="stop-opacity:1;stop-color:#c8c8c8"
         offset="1"
         id="stop1140" /></radialGradient><radialGradient
       fx="363.19141"
       fy="621.02344"
       cx="363.19141"
       cy="621.02344"
       r="21.550781"
       gradientUnits="userSpaceOnUse"
       gradientTransform="matrix(0.8,0,0,0.618647,-188.31981,-212.18425)"
       spreadMethod="pad"
       id="radialGradient1156"><stop
         style="stop-opacity:1;stop-color:#969696"
         offset="0"
         id="stop1152" /><stop
         style="stop-opacity:1;stop-color:#c8c8c8"
         offset="1"
         id="stop1154" /></radialGradient><radialGradient
       fx="379.78906"
       fy="594.21875"
       cx="379.78906"
       cy="594.21875"
       r="18.402344"
       gradientUnits="userSpaceOnUse"
       gradientTransform="matrix(0.8,0,0,0.701206,-188.31981,-266.10344)"
       spreadMethod="pad"
       id="radialGradient1170"><stop
         style="stop-opacity:1;stop-color:#969696"
         offset="0"
         id="stop1166" /><stop
         style="stop-opacity:1;stop-color:#c8c8c8"
         offset="1"
         id="stop1168" /></radialGradient><radialGradient
       fx="396.42578"
       fy="619.60938"
       cx="396.42578"
       cy="619.60938"
       r="12.488281"
       gradientUnits="userSpaceOnUse"
       gradientTransform="matrix(0.8,0,0,0.893117,-188.31981,-382.50505)"
       spreadMethod="pad"
       id="radialGradient1184"><stop
         style="stop-opacity:1;stop-color:#969696"
         offset="0"
         id="stop1180" /><stop
         style="stop-opacity:1;stop-color:#c8c8c8"
         offset="1"
         id="stop1182" /></radialGradient><radialGradient
       fx="394.08594"
       fy="530.23438"
       cx="394.08594"
       cy="530.23438"
       r="15.414062"
       gradientUnits="userSpaceOnUse"
       gradientTransform="matrix(0.8,0,0,0.966884,-188.31981,-413.2965)"
       spreadMethod="pad"
       id="radialGradient1198"><stop
         style="stop-opacity:1;stop-color:#969696"
         offset="0"
         id="stop1194" /><stop
         style="stop-opacity:1;stop-color:#c8c8c8"
         offset="1"
         id="stop1196" /></radialGradient><radialGradient
       fx="286.32422"
       fy="639.95703"
       cx="286.32422"
       cy="639.95703"
       r="26.285156"
       gradientUnits="userSpaceOnUse"
       gradientTransform="matrix(0.8,0,0,0.48169,-188.31981,-121.10356)"
       spreadMethod="pad"
       id="radialGradient1212"><stop
         style="stop-opacity:1;stop-color:#969696"
         offset="0"
         id="stop1208" /><stop
         style="stop-opacity:1;stop-color:#c8c8c8"
         offset="1"
         id="stop1210" /></radialGradient><radialGradient
       fx="391.4375"
       fy="492.04297"
       cx="391.4375"
       cy="492.04297"
       r="17.765625"
       gradientUnits="userSpaceOnUse"
       gradientTransform="matrix(0.8,0,0,0.937221,-188.31981,-392.32718)"
       spreadMethod="pad"
       id="radialGradient1226"><stop
         style="stop-opacity:1;stop-color:#969696"
         offset="0"
         id="stop1222" /><stop
         style="stop-opacity:1;stop-color:#c8c8c8"
         offset="1"
         id="stop1224" /></radialGradient><clipPath
       clipPathUnits="userSpaceOnUse"
       id="clipPath1260"><path
         d="m 283.566,279.287 h 83.699 V 68.014 h -83.699 z"
         id="path1258" /></clipPath><clipPath
       clipPathUnits="userSpaceOnUse"
       id="clipPath1268"><path
         d="M 0,0 H 525 V 287 H 0 Z"
         id="path1266" /></clipPath><clipPath
       clipPathUnits="userSpaceOnUse"
       id="clipPath1286"><path
         d="M 403.277,279.541 H 524.781 V 68.064 H 403.277 Z"
         id="path1284" /></clipPath><clipPath
       clipPathUnits="userSpaceOnUse"
       id="clipPath1294"><path
         d="M 0,0 H 525 V 287 H 0 Z"
         id="path1292" /></clipPath></defs><sodipodi:namedview
     id="namedview826"
     pagecolor="#ffffff"
     bordercolor="#666666"
     borderopacity="1.0"
     inkscape:pageshadow="2"
     inkscape:pageopacity="0.0"
     inkscape:pagecheckerboard="0"
     showgrid="false"
     inkscape:zoom="0.77955151"
     inkscape:cx="349.55997"
     inkscape:cy="190.49415"
     inkscape:window-width="1312"
     inkscape:window-height="969"
     inkscape:window-x="0"
     inkscape:window-y="38"
     inkscape:window-maximized="0"
     inkscape:current-layer="g830" /><g
     id="g830"
     inkscape:groupmode="layer"
     inkscape:label="porous_media_sand"
     transform="matrix(1.3333333,0,0,-1.3333333,0,381.47127)"><g
       id="g832"><g
         id="g834"
         transform="matrix(1,0,0,-1,0,286.10345)"><path
           d="m 55.656,47.656 c -1.875,-0.004 -3.761,0.098 -5.601,0.176 -7.664,-0.918 -10.672,6.738 -13.473,12.5 -5.52,4.813 -14.082,4.195 -21,5.348 1.262,32.64 1.883,102.476 2.172,133.152 52.301,0.211 71.41,1.559 124.027,0.773 -0.429,-33.21 -0.871,-90.285 -1.176,-127.824 -8.007,-1.054 -22.277,-6.754 -29.351,-9.25 C 104.547,57.379 96.547,62.027 89.18,59.805 82.793,57.43 75.211,59.086 70.129,53.781 66.754,48.602 61.273,47.668 55.656,47.656 Z m 27.676,50.449 c 0.906,-0.019 1.793,0.04 2.699,0.176 1.821,1.699 2.328,4.281 3.926,6.149 1.242,2.734 0.559,5.89 -0.602,8.527 -0.351,0.938 -0.855,1.836 -1.824,2.25 -2.484,1.375 -5.422,1.051 -8.152,1.074 -2.332,-1.097 -3.828,-3.511 -4.348,-5.976 -0.144,-1.864 1.188,-3.418 1.25,-5.25 -0.277,-1.707 -0.531,-3.617 0.348,-5.2 0.449,-0.765 1.254,-1.296 2.152,-1.3 1.496,-0.2 3.035,-0.414 4.551,-0.45 z m -39.852,8.477 c 0.235,-0.016 0.469,-0.012 0.7,0 0.265,0.008 0.519,0.035 0.777,0.074 3.824,0.5 6.68,3.508 8.773,6.524 1.645,2.66 3.836,5.086 4.524,8.226 0.508,2.016 -0.059,4.282 -1.574,5.723 -0.59,2.898 -2.938,5.633 -6.024,5.828 -1.84,0.168 -3.511,-0.758 -5.25,-1.176 -3.304,-1.058 -6.929,-2.492 -8.75,-5.652 -1.113,-1.895 -1.218,-4.293 -0.199,-6.25 1.016,-6.039 1.039,-6.262 3,-10.949 0.723,-1.555 2.379,-2.25 4.023,-2.348 z m 69,20.223 c 1.649,0.066 3.18,1.082 4.176,2.375 1.176,0.82 1.598,2.308 1.875,3.675 0.379,1.532 -0.203,3.102 -0.426,4.602 -0.761,1.07 -1.449,2.262 -2.55,3 -1.129,1.34 -2.828,0.922 -4.301,0.625 -1.789,-0.125 -3.535,-0.516 -5.25,-1.027 -1.559,-0.387 -3.352,-0.332 -3.922,-2.2 -0.422,-1.742 -0.293,-3.601 -0.078,-5.351 0.269,-1.5 0.086,-3.422 1.578,-4.348 1.43,-1.008 3.215,-1.238 4.922,-1.051 1.293,-0.324 2.648,-0.25 3.976,-0.3 z"
           style="fill:#64a0ff;fill-opacity:1;fill-rule:nonzero;stroke:#6482c8;stroke-width:0.25;stroke-linecap:butt;stroke-linejoin:miter;stroke-miterlimit:4;stroke-dasharray:none;stroke-opacity:1"
           id="path836" /></g><g
         id="g838"
         transform="matrix(1,0,0,-1,0,286.10345)"><path
           d="M 4.129,16.836 H 20.266 V 199.379 H 4.129 Z"
           style="fill:#d7e3f4;fill-opacity:1;fill-rule:evenodd;stroke:#3cabb7;stroke-width:0.257454;stroke-linecap:butt;stroke-linejoin:miter;stroke-miterlimit:4;stroke-dasharray:none;stroke-opacity:1"
           id="path840" /></g><g
         id="g842"><path
           d="m 59.691,196.369 c 1.371,2.152 6.825,8.461 9.864,4.949 3.492,0.641 7.211,1.95 10.164,1 2.972,0.164 4.758,-2.816 6.519,-6.492 2.211,-4.465 -1.3,-6.98 -4.226,-9.695 -2.922,-2.305 -7.387,-6.035 -10.453,-3.805 -2.59,0.906 -5.641,0.481 -7.868,2.461 -2.804,2.121 -7.183,5.816 -4,11.582 z"
           style="fill:url(#radialGradient848);fill-opacity:1;fill-rule:nonzero;stroke:none"
           id="path850" /></g><g
         id="g852"
         transform="matrix(1,0,0,-1,0,286.10345)"><path
           d="m 59.691,89.734 c 1.371,-2.152 6.825,-8.461 9.864,-4.949 3.492,-0.64 7.211,-1.949 10.164,-1 2.972,-0.164 4.758,2.817 6.519,6.492 2.211,4.465 -1.3,6.981 -4.226,9.696 -2.922,2.304 -7.387,6.035 -10.453,3.804 -2.59,-0.906 -5.641,-0.48 -7.868,-2.461 -2.804,-2.121 -7.183,-5.816 -4,-11.582 z"
           style="fill:none;stroke:#b4b4b4;stroke-width:0.25;stroke-linecap:butt;stroke-linejoin:miter;stroke-miterlimit:4;stroke-dasharray:none;stroke-opacity:1"
           id="path854" /></g><g
         id="g856"><path
           d="m 32.238,135.435 c 5.91,-1.343 11.625,-1.089 12.551,-6.574 1.09,-3.289 1.02,-7.75 1.793,-11.355 1.23,0.269 -2.461,-4.102 -4.184,-4.781 -3.101,-1.391 -7.722,-1.266 -12.289,-1.196 -3.761,0.309 -4.644,3.496 -5.64,6.574 -1.391,4.422 -3.61,7.797 -3.586,13.372 0.394,3.164 3.082,4.843 4.781,6.949 2.715,-2.446 0.816,-3.578 6.574,-2.989 z"
           style="fill:url(#radialGradient862);fill-opacity:1;fill-rule:nonzero;stroke:none"
           id="path864" /></g><g
         id="g866"
         transform="matrix(1,0,0,-1,0,286.10345)"><path
           d="m 32.238,150.668 c 5.91,1.344 11.625,1.09 12.551,6.574 1.09,3.289 1.02,7.75 1.793,11.356 1.23,-0.27 -2.461,4.101 -4.184,4.781 -3.101,1.391 -7.722,1.266 -12.289,1.195 -3.761,-0.308 -4.644,-3.496 -5.64,-6.574 -1.391,-4.422 -3.61,-7.797 -3.586,-13.371 0.394,-3.164 3.082,-4.844 4.781,-6.949 2.715,2.445 0.816,3.578 6.574,2.988 z"
           style="fill:none;stroke:#b4b4b4;stroke-width:0.25;stroke-linecap:butt;stroke-linejoin:miter;stroke-miterlimit:4;stroke-dasharray:none;stroke-opacity:1"
           id="path868" /></g><g
         id="g870"><path
           d="m 51.117,191.103 c -3.695,-1.625 -8.222,-1.695 -11.355,-4.183 -3.551,-0.606 -2.754,-3.781 -6.574,-4.184 -2.028,-1.758 -3.77,-3.801 -5.977,-5.379 -1.633,-2.418 -5.356,-5.023 -3.586,-8.964 2.91,-0.774 4.723,2.484 7.172,3.585 2.129,1.657 3.66,3.911 5.976,5.379 2.582,2.102 6.129,3.235 9.864,4.184 3.078,1.703 8.465,1.098 8.664,5.68 0.633,5.07 -1.203,2.504 -4.184,3.882 z"
           style="fill:url(#radialGradient876);fill-opacity:1;fill-rule:nonzero;stroke:none"
           id="path878" /></g><g
         id="g880"
         transform="matrix(1,0,0,-1,0,286.10345)"><path
           d="m 51.117,95 c -3.695,1.625 -8.222,1.695 -11.355,4.184 -3.551,0.605 -2.754,3.781 -6.574,4.183 -2.028,1.758 -3.77,3.801 -5.977,5.379 -1.633,2.418 -5.356,5.024 -3.586,8.965 2.91,0.773 4.723,-2.484 7.172,-3.586 2.129,-1.656 3.66,-3.91 5.976,-5.379 2.582,-2.101 6.129,-3.234 9.864,-4.184 3.078,-1.703 8.465,-1.097 8.664,-5.679 C 55.934,93.812 54.098,96.379 51.117,95 Z"
           style="fill:none;stroke:#b4b4b4;stroke-width:0.25;stroke-linecap:butt;stroke-linejoin:miter;stroke-miterlimit:4;stroke-dasharray:none;stroke-opacity:1"
           id="path882" /></g><g
         id="g884"><path
           d="m 72.621,227.381 c 3.184,-0.742 5.66,-2.196 7.004,-4.781 1.996,-2.024 2.684,-5.36 2.391,-9.672 0.05,-4 -1.895,-6 -4.184,-7.66 -5.219,-1.387 -11.305,-3.458 -16.762,-1.235 -4.09,0.172 -2.851,5.516 -4.156,8.406 0.594,3.829 -1.855,10.7 3.098,10.161 9.09,-2 5.863,4.761 12.609,4.781 z"
           style="fill:url(#radialGradient890);fill-opacity:1;fill-rule:nonzero;stroke:none"
           id="path892" /></g><g
         id="g894"
         transform="matrix(1,0,0,-1,0,286.10345)"><path
           d="m 72.621,58.723 c 3.184,0.742 5.66,2.195 7.004,4.781 1.996,2.023 2.684,5.359 2.391,9.672 0.05,4 -1.895,6 -4.184,7.66 -5.219,1.387 -11.305,3.457 -16.762,1.234 -4.09,-0.172 -2.851,-5.515 -4.156,-8.406 0.594,-3.828 -1.855,-10.699 3.098,-10.16 9.09,2 5.863,-4.762 12.609,-4.781 z"
           style="fill:none;stroke:#b4b4b4;stroke-width:0.25;stroke-linecap:butt;stroke-linejoin:miter;stroke-miterlimit:4;stroke-dasharray:none;stroke-opacity:1"
           id="path896" /></g><g
         id="g898"><path
           d="m 111.824,247.553 c -4.488,-1.016 -9.812,-0.66 -15.363,0.086 -4.441,1.011 -2,6.191 -1.137,10.414 1.254,4.781 5.012,6.547 6.555,11.64 2.117,4.153 6.488,4.758 12.453,3.094 3.863,-1.121 9.547,-1.137 7.852,-5.621 1.164,-10.531 -2.661,-16.586 -10.36,-19.613 z"
           style="fill:url(#radialGradient904);fill-opacity:1;fill-rule:nonzero;stroke:none"
           id="path906" /></g><g
         id="g908"
         transform="matrix(1,0,0,-1,0,286.10345)"><path
           d="m 111.824,38.551 c -4.488,1.015 -9.812,0.66 -15.363,-0.086 -4.441,-1.012 -2,-6.192 -1.137,-10.414 1.254,-4.781 5.012,-6.547 6.555,-11.641 2.117,-4.152 6.488,-4.758 12.453,-3.094 3.863,1.122 9.547,1.137 7.852,5.622 1.164,10.531 -2.661,16.585 -10.36,19.613 z"
           style="fill:none;stroke:#b4b4b4;stroke-width:0.25;stroke-linecap:butt;stroke-linejoin:miter;stroke-miterlimit:4;stroke-dasharray:none;stroke-opacity:1"
           id="path910" /></g><g
         id="g912"><path
           d="m 75.07,181.619 c 4.176,0.391 4.473,-5.82 6.575,-8.965 0.078,-4.105 3.437,-4.929 2.39,-10.16 -2.043,-2.98 -8.172,-6.09 -11.355,-7.769 -2.25,-2.258 -9.418,-2.082 -9.192,0.66 -3.465,2.898 -5.824,6.058 -8.738,8.304 -2.391,1.813 -3.688,4.719 -4.184,8.426 -0.421,4.922 0.758,9.031 3.586,11.297 0.614,3.371 7.321,4.195 8.368,0.598 0.238,-4.578 8.273,-4.348 9.562,-4.184 l 1.527,0.828 z"
           style="fill:url(#radialGradient918);fill-opacity:1;fill-rule:nonzero;stroke:none"
           id="path920" /></g><g
         id="g922"
         transform="matrix(1,0,0,-1,0,286.10345)"><path
           d="m 75.07,104.484 c 4.176,-0.39 4.473,5.821 6.575,8.965 0.078,4.106 3.437,4.93 2.39,10.16 -2.043,2.981 -8.172,6.09 -11.355,7.77 -2.25,2.258 -9.418,2.082 -9.192,-0.66 -3.465,-2.899 -5.824,-6.059 -8.738,-8.305 -2.391,-1.812 -3.688,-4.719 -4.184,-8.426 -0.421,-4.922 0.758,-9.031 3.586,-11.297 0.614,-3.371 7.321,-4.195 8.368,-0.597 0.238,4.578 8.273,4.347 9.562,4.183 l 1.527,-0.828 z"
           style="fill:none;stroke:#b4b4b4;stroke-width:0.25;stroke-linecap:butt;stroke-linejoin:miter;stroke-miterlimit:4;stroke-dasharray:none;stroke-opacity:1"
           id="path924" /></g><g
         id="g926"><path
           d="m 52.836,113.4 c 0.394,5.438 2.512,8.934 2.855,12.106 3.735,3.234 6.825,6.609 11.789,9.262 4.653,2.253 9.551,3.285 13.368,3.457 3.968,0.695 5.66,-7.422 5.773,-11.196 1,-4.281 -1.148,-7.16 -3.992,-9.351 -4.313,-0.969 -8.145,-5.766 -11.813,-4.118 -5.824,3.543 -19.601,-4.898 -17.98,-0.16 z"
           style="fill:url(#radialGradient932);fill-opacity:1;fill-rule:nonzero;stroke:none"
           id="path934" /></g><g
         id="g936"
         transform="matrix(1,0,0,-1,0,286.10345)"><path
           d="m 52.836,172.703 c 0.394,-5.437 2.512,-8.933 2.855,-12.105 3.735,-3.235 6.825,-6.61 11.789,-9.262 4.653,-2.254 9.551,-3.285 13.368,-3.457 3.968,-0.695 5.66,7.422 5.773,11.195 1,4.281 -1.148,7.16 -3.992,9.352 -4.313,0.969 -8.145,5.765 -11.813,4.117 -5.824,-3.543 -19.601,4.898 -17.98,0.16 z"
           style="fill:none;stroke:#b4b4b4;stroke-width:0.25;stroke-linecap:butt;stroke-linejoin:miter;stroke-miterlimit:4;stroke-dasharray:none;stroke-opacity:1"
           id="path938" /></g><g
         id="g940"><path
           d="m 56.5,202.228 c 6.18,-0.585 2.055,-9.203 -2.391,-9.562 -6.273,-3.977 -14.949,-4.422 -21.75,-7.18 -6.836,-2.765 -14.66,0.547 -11.718,7.18 1.843,1.758 2.879,6.215 4.961,7.91 5.847,7.051 17.363,1.34 30.898,1.652 z"
           style="fill:url(#radialGradient946);fill-opacity:1;fill-rule:nonzero;stroke:none"
           id="path948" /></g><g
         id="g950"
         transform="matrix(1,0,0,-1,0,286.10345)"><path
           d="m 56.5,83.875 c 6.18,0.586 2.055,9.203 -2.391,9.563 -6.273,3.976 -14.949,4.421 -21.75,7.179 -6.836,2.766 -14.66,-0.547 -11.718,-7.179 1.843,-1.758 2.879,-6.215 4.961,-7.911 5.847,-7.05 17.363,-1.339 30.898,-1.652 z"
           style="fill:none;stroke:#b4b4b4;stroke-width:0.25;stroke-linecap:butt;stroke-linejoin:miter;stroke-miterlimit:4;stroke-dasharray:none;stroke-opacity:1"
           id="path952" /></g><g
         id="g954"><path
           d="m 30.234,268.924 c 4.793,-1.137 9.602,-3.629 11.954,-5.977 1.621,-2.16 3.71,-3.859 4.781,-6.574 3.746,-2.18 0.722,-7.664 -1.196,-9.563 -2.941,-1.554 -6.472,-3.73 -10.871,-3.585 -4.5,-0.454 -6.371,0.843 -8.851,2.988 -3.227,1.754 -5.942,5.148 -4.184,10.16 1.93,2.457 2.227,6.84 4.781,8.367 1.086,0.938 2.61,1.785 3.586,4.184 z"
           style="fill:url(#radialGradient960);fill-opacity:1;fill-rule:nonzero;stroke:none"
           id="path962" /></g><g
         id="g964"
         transform="matrix(1,0,0,-1,0,286.10345)"><path
           d="m 30.234,17.18 c 4.793,1.136 9.602,3.629 11.954,5.976 1.621,2.16 3.71,3.86 4.781,6.574 3.746,2.18 0.722,7.665 -1.196,9.563 -2.941,1.555 -6.472,3.73 -10.871,3.586 -4.5,0.453 -6.371,-0.844 -8.851,-2.988 -3.227,-1.754 -5.942,-5.149 -4.184,-10.161 1.93,-2.457 2.227,-6.839 4.781,-8.367 1.086,-0.937 2.61,-1.785 3.586,-4.183 z"
           style="fill:none;stroke:#b4b4b4;stroke-width:0.25;stroke-linecap:butt;stroke-linejoin:miter;stroke-miterlimit:4;stroke-dasharray:none;stroke-opacity:1"
           id="path966" /></g><g
         id="g968"><path
           d="m 42.117,152.471 c -2.64,-1.942 -3.691,-5.473 -8.965,-4.782 -1.812,2.036 -6.281,1.957 -7.769,4.782 -3.617,1.531 -5.93,4.222 -4.184,8.964 0.621,3.75 3.512,4.258 6.574,7.172 1.161,2.2 5.625,4.18 8.368,2.391 8.636,-2.746 9.847,-10 5.976,-18.527 z"
           style="fill:url(#radialGradient974);fill-opacity:1;fill-rule:nonzero;stroke:none"
           id="path976" /></g><g
         id="g978"
         transform="matrix(1,0,0,-1,0,286.10345)"><path
           d="m 42.117,133.633 c -2.64,1.941 -3.691,5.472 -8.965,4.781 -1.812,-2.035 -6.281,-1.957 -7.769,-4.781 -3.617,-1.531 -5.93,-4.223 -4.184,-8.965 0.621,-3.75 3.512,-4.258 6.574,-7.172 1.161,-2.199 5.625,-4.18 8.368,-2.391 8.636,2.747 9.847,10 5.976,18.528 z"
           style="fill:none;stroke:#b4b4b4;stroke-width:0.25;stroke-linecap:butt;stroke-linejoin:miter;stroke-miterlimit:4;stroke-dasharray:none;stroke-opacity:1"
           id="path980" /></g><g
         id="g982"><path
           d="m 73.406,243.861 c 6.672,4.235 6.02,-4.968 4.782,-7.769 -0.579,-4.082 -3.524,-5.723 -5.379,-7.172 -2.266,-2.856 -7.754,-2.445 -12.551,-2.391 -3.5,1.977 -9.012,3.145 -11.953,4.781 -3.418,1.454 -2.973,7.059 -2.989,11.637 0.5,3.36 2.481,5.625 4.782,6.891 2.031,1.754 4.695,2.875 8.964,2.39 3.411,-0.972 6.165,-2.601 8.368,-4.781 1.363,-1.133 3.347,-2.644 5.976,-3.586 z"
           style="fill:url(#radialGradient988);fill-opacity:1;fill-rule:nonzero;stroke:none"
           id="path990" /></g><g
         id="g992"
         transform="matrix(1,0,0,-1,0,286.10345)"><path
           d="m 73.406,42.242 c 6.672,-4.234 6.02,4.969 4.782,7.77 -0.579,4.082 -3.524,5.722 -5.379,7.172 -2.266,2.855 -7.754,2.445 -12.551,2.39 -3.5,-1.976 -9.012,-3.144 -11.953,-4.781 -3.418,-1.453 -2.973,-7.059 -2.989,-11.637 0.5,-3.359 2.481,-5.625 4.782,-6.89 2.031,-1.754 4.695,-2.875 8.964,-2.391 3.411,0.973 6.165,2.602 8.368,4.781 1.363,1.133 3.347,2.645 5.976,3.586 z"
           style="fill:none;stroke:#b4b4b4;stroke-width:0.25;stroke-linecap:butt;stroke-linejoin:miter;stroke-miterlimit:4;stroke-dasharray:none;stroke-opacity:1"
           id="path994" /></g><g
         id="g996"><path
           d="m 64.203,277.178 c 2.348,-4.25 1.723,-8.782 1.793,-13.914 -0.226,-3.895 -1.547,-6.704 -4.184,-8.2 -1.691,-2.921 -8.773,-3.3 -10.16,0 -1.39,0.59 -3.547,4.207 -5.976,4.782 -2.196,2.82 -3.434,6.605 -3.586,11.468 -0.402,3.969 2.207,5.989 4.183,7.657 2.965,0.785 5.637,5.062 9.563,1.793 2.418,-1.118 6.852,-4.508 8.367,-3.586 z"
           style="fill:url(#radialGradient1002);fill-opacity:1;fill-rule:nonzero;stroke:none"
           id="path1004" /></g><g
         id="g1006"
         transform="matrix(1,0,0,-1,0,286.10345)"><path
           d="m 64.203,8.926 c 2.348,4.25 1.723,8.781 1.793,13.914 -0.226,3.894 -1.547,6.703 -4.184,8.199 -1.691,2.922 -8.773,3.301 -10.16,0 -1.39,-0.59 -3.547,-4.207 -5.976,-4.781 C 43.48,23.438 42.242,19.652 42.09,14.789 41.688,10.82 44.297,8.801 46.273,7.133 49.238,6.348 51.91,2.07 55.836,5.34 c 2.418,1.117 6.852,4.508 8.367,3.586 z"
           style="fill:none;stroke:#b4b4b4;stroke-width:0.25;stroke-linecap:butt;stroke-linejoin:miter;stroke-miterlimit:4;stroke-dasharray:none;stroke-opacity:1"
           id="path1008" /></g><g
         id="g1010"><path
           d="m 106.73,219.045 c 2.832,-2.606 4.735,-8.574 5.981,-10.77 2.094,-4.058 -0.703,-6.414 -2.559,-7.976 -3.57,-2.215 -6.898,-3.442 -10.757,-4.184 -4.258,-0.879 -7.43,0.082 -10.161,1.195 -2.668,1.118 -4.582,2.989 -5.379,5.977 -1.242,2.863 -3.574,9.856 0,11.953 3.864,2.039 4.278,5.391 12.055,5.852 2.883,-0.129 9.344,-0.457 10.82,-2.047 z"
           style="fill:url(#radialGradient1016);fill-opacity:1;fill-rule:nonzero;stroke:none"
           id="path1018" /></g><g
         id="g1020"
         transform="matrix(1,0,0,-1,0,286.10345)"><path
           d="m 106.73,67.059 c 2.832,2.605 4.735,8.574 5.981,10.769 2.094,4.059 -0.703,6.414 -2.559,7.977 -3.57,2.215 -6.898,3.441 -10.757,4.183 -4.258,0.879 -7.43,-0.082 -10.161,-1.195 -2.668,-1.117 -4.582,-2.988 -5.379,-5.977 -1.242,-2.863 -3.574,-9.855 0,-11.953 3.864,-2.039 4.278,-5.39 12.055,-5.851 2.883,0.129 9.344,0.457 10.82,2.047 z"
           style="fill:none;stroke:#b4b4b4;stroke-width:0.25;stroke-linecap:butt;stroke-linejoin:miter;stroke-miterlimit:4;stroke-dasharray:none;stroke-opacity:1"
           id="path1022" /></g><g
         id="g1024"><path
           d="m 80.613,267.553 c 5.321,1.492 7.348,-1.567 11.356,-2.989 1.285,-3.285 2.343,-6.836 1.793,-11.953 -1.383,-3.261 -2.914,-4.965 -5.379,-6.574 -3.887,-1.004 -8.817,-3.09 -12.551,0 -4.012,1.707 -6.348,4.309 -9.562,5.379 -1.368,1.871 -2.141,7.379 0.597,8.367 1.707,2.328 2.66,3.891 6.031,4.781 3.614,-0.355 4.622,1.172 7.715,2.989 z"
           style="fill:url(#radialGradient1030);fill-opacity:1;fill-rule:nonzero;stroke:none"
           id="path1032" /></g><g
         id="g1034"
         transform="matrix(1,0,0,-1,0,286.10345)"><path
           d="m 80.613,18.551 c 5.321,-1.492 7.348,1.566 11.356,2.988 1.285,3.285 2.343,6.836 1.793,11.953 -1.383,3.262 -2.914,4.965 -5.379,6.574 -3.887,1.004 -8.817,3.09 -12.551,0 -4.012,-1.707 -6.348,-4.308 -9.562,-5.378 -1.368,-1.872 -2.141,-7.379 0.597,-8.368 1.707,-2.328 2.66,-3.89 6.031,-4.781 3.614,0.356 4.622,-1.172 7.715,-2.988 z"
           style="fill:none;stroke:#b4b4b4;stroke-width:0.25;stroke-linecap:butt;stroke-linejoin:miter;stroke-miterlimit:4;stroke-dasharray:none;stroke-opacity:1"
           id="path1036" /></g><g
         id="g1038"><path
           d="m 39.719,239.725 c 3.234,-4.504 5.73,-6.872 8.965,-9.563 1.511,-3.562 6.019,-7.156 7.171,-11.953 1.18,-3.602 0.684,-9.223 -1.195,-11.356 -2.34,-1.101 -6.246,-3.375 -11.035,-2.988 -5.152,-0.644 -7.5,3.266 -10.48,7.172 -1.786,3.883 -6.004,6.582 -7.77,10.16 -3.039,2.391 -5.914,7.957 -2.988,11.356 1.586,3.679 4.793,3.789 8.367,6.574 3.859,2.691 4.402,4.785 8.965,0.598 z"
           style="fill:url(#radialGradient1044);fill-opacity:1;fill-rule:nonzero;stroke:none"
           id="path1046" /></g><g
         id="g1048"
         transform="matrix(1,0,0,-1,0,286.10345)"><path
           d="m 39.719,46.379 c 3.234,4.504 5.73,6.871 8.965,9.562 1.511,3.563 6.019,7.157 7.171,11.954 1.18,3.601 0.684,9.222 -1.195,11.355 -2.34,1.102 -6.246,3.375 -11.035,2.988 -5.152,0.645 -7.5,-3.265 -10.48,-7.172 -1.786,-3.882 -6.004,-6.582 -7.77,-10.16 -3.039,-2.39 -5.914,-7.957 -2.988,-11.355 1.586,-3.68 4.793,-3.789 8.367,-6.574 3.859,-2.692 4.402,-4.786 8.965,-0.598 z"
           style="fill:none;stroke:#b4b4b4;stroke-width:0.25;stroke-linecap:butt;stroke-linejoin:miter;stroke-miterlimit:4;stroke-dasharray:none;stroke-opacity:1"
           id="path1050" /></g><g
         id="g1052"><path
           d="m 79.949,157.42 c 4.668,-0.547 9.406,-2.473 12.824,-2.774 4.399,-0.543 7.145,-1.543 9.598,-4.441 1.965,-2.09 5.797,-7.125 2.363,-9.285 -1.121,-2.305 -5.488,-4.406 -9.3,-4.254 -4.653,0.168 -8.059,-0.184 -11.524,0.68 -1.937,1.738 -6.008,1.714 -8.476,2.918 -2.438,0.961 -5.039,3.125 -7.524,3.855 -3.336,2.762 0.371,6.379 1.781,8.109 2.207,2.731 6.758,2.297 10.258,5.192 z"
           style="fill:url(#radialGradient1058);fill-opacity:1;fill-rule:nonzero;stroke:none"
           id="path1060" /></g><g
         id="g1062"
         transform="matrix(1,0,0,-1,0,286.10345)"><path
           d="m 79.949,128.684 c 4.668,0.546 9.406,2.472 12.824,2.773 4.399,0.543 7.145,1.543 9.598,4.441 1.965,2.09 5.797,7.125 2.363,9.286 -1.121,2.304 -5.488,4.406 -9.3,4.254 -4.653,-0.168 -8.059,0.183 -11.524,-0.68 -1.937,-1.738 -6.008,-1.715 -8.476,-2.918 -2.438,-0.961 -5.039,-3.125 -7.524,-3.856 -3.336,-2.761 0.371,-6.379 1.781,-8.109 2.207,-2.73 6.758,-2.297 10.258,-5.191 z"
           style="fill:none;stroke:#b4b4b4;stroke-width:0.25;stroke-linecap:butt;stroke-linejoin:miter;stroke-miterlimit:4;stroke-dasharray:none;stroke-opacity:1"
           id="path1064" /></g><g
         id="g1066"><path
           d="m 116.109,238.502 c -2.418,-5.387 1.438,3.351 -2.39,-3.586 -1.461,-2.879 -3.313,-4.77 -4.781,-7.172 -2.192,-3.141 -4.708,-4.851 -8.965,-5.379 -2.922,-1.547 -8.348,-0.297 -10.161,1.195 -2.195,1.821 -4.968,3.969 -6.574,5.977 -1.996,2.066 -2.613,5.516 -3.586,8.965 -2.726,4.57 4.407,3.976 5.977,5.98 4.844,0.903 7.375,3.09 12.941,2.391 4.086,0.23 7.508,-0.203 9.172,-2.391 2.196,-1.156 4.086,-3.195 5.379,-4.781 z"
           style="fill:url(#radialGradient1072);fill-opacity:1;fill-rule:nonzero;stroke:none"
           id="path1074" /></g><g
         id="g1076"
         transform="matrix(1,0,0,-1,0,286.10345)"><path
           d="m 116.109,47.602 c -2.418,5.386 1.438,-3.352 -2.39,3.586 -1.461,2.878 -3.313,4.769 -4.781,7.171 -2.192,3.141 -4.708,4.852 -8.965,5.379 -2.922,1.547 -8.348,0.297 -10.161,-1.195 -2.195,-1.82 -4.968,-3.969 -6.574,-5.977 -1.996,-2.066 -2.613,-5.515 -3.586,-8.964 -2.726,-4.571 4.407,-3.977 5.977,-5.981 4.844,-0.902 7.375,-3.09 12.941,-2.391 4.086,-0.23 7.508,0.204 9.172,2.391 2.196,1.156 4.086,3.195 5.379,4.781 z"
           style="fill:none;stroke:#b4b4b4;stroke-width:0.25;stroke-linecap:butt;stroke-linejoin:miter;stroke-miterlimit:4;stroke-dasharray:none;stroke-opacity:1"
           id="path1078" /></g><g
         id="g1080"><path
           d="m 59.801,134.377 c -5.77,0.098 -9.547,-4.516 -14.344,-1.793 -3.574,0.453 -8.035,2.949 -10.758,4.184 -0.875,3.73 1.149,7.656 1.422,9.027 3.352,1.773 2.516,3.723 6.348,5.32 2.379,2.399 5.125,4.438 9.562,4.781 4.438,0.039 9.461,-0.16 11.953,-2.39 1.696,-2.774 2.266,-5.781 3.586,-8.965 3.68,-16.223 -5.175,-5.258 -7.769,-10.164 z"
           style="fill:url(#radialGradient1086);fill-opacity:1;fill-rule:nonzero;stroke:none"
           id="path1088" /></g><g
         id="g1090"
         transform="matrix(1,0,0,-1,0,286.10345)"><path
           d="m 59.801,151.727 c -5.77,-0.098 -9.547,4.515 -14.344,1.793 -3.574,-0.454 -8.035,-2.95 -10.758,-4.184 -0.875,-3.731 1.149,-7.656 1.422,-9.027 3.352,-1.774 2.516,-3.723 6.348,-5.321 2.379,-2.398 5.125,-4.437 9.562,-4.781 4.438,-0.039 9.461,0.16 11.953,2.391 1.696,2.773 2.266,5.781 3.586,8.964 3.68,16.223 -5.175,5.258 -7.769,10.165 z"
           style="fill:none;stroke:#b4b4b4;stroke-width:0.25;stroke-linecap:butt;stroke-linejoin:miter;stroke-miterlimit:4;stroke-dasharray:none;stroke-opacity:1"
           id="path1092" /></g><g
         id="g1094"><path
           d="m 114.184,162.111 c -3.098,-2.269 -6.856,-5.379 -10.161,-5.976 -3.003,-1.946 -9.961,-1.297 -14.343,-0.598 -1.41,5.731 -3.059,12.43 -3.586,19.125 -1.067,5.539 -0.965,12.441 1.195,16.734 2.477,2.149 6.965,4.192 11.953,4.184 4.11,1.992 7.379,-0.484 10.16,-1.195 1.578,-2.813 6.68,-2.746 5.977,-7.282 0.266,-5.007 -0.297,-9.195 -1.195,-13.039 z"
           style="fill:url(#radialGradient1100);fill-opacity:1;fill-rule:nonzero;stroke:none"
           id="path1102" /></g><g
         id="g1104"
         transform="matrix(1,0,0,-1,0,286.10345)"><path
           d="m 114.184,123.992 c -3.098,2.27 -6.856,5.379 -10.161,5.977 -3.003,1.945 -9.961,1.297 -14.343,0.597 -1.41,-5.73 -3.059,-12.429 -3.586,-19.125 -1.067,-5.539 -0.965,-12.441 1.195,-16.734 2.477,-2.148 6.965,-4.191 11.953,-4.184 4.11,-1.992 7.379,0.485 10.16,1.196 1.578,2.812 6.68,2.746 5.977,7.281 0.266,5.008 -0.297,9.195 -1.195,13.039 z"
           style="fill:none;stroke:#b4b4b4;stroke-width:0.25;stroke-linecap:butt;stroke-linejoin:miter;stroke-miterlimit:4;stroke-dasharray:none;stroke-opacity:1"
           id="path1106" /></g><g
         id="g1108"><path
           d="m 115.574,166.26 c 1.684,2.804 3.828,4.715 6.699,5.203 2.539,1.277 5.926,0.91 9.942,-0.695 3.824,-1.176 5.129,-3.645 6.004,-6.333 -0.281,-5.39 -0.176,-11.816 -3.965,-16.332 -1.418,-3.835 -6.125,-1.019 -9.277,-1.375 -3.457,1.739 -10.75,1.516 -8.719,6.067 4.691,8.039 -2.731,7.039 -0.684,13.465 z"
           style="fill:url(#radialGradient1114);fill-opacity:1;fill-rule:nonzero;stroke:none"
           id="path1116" /></g><g
         id="g1118"
         transform="matrix(1,0,0,-1,0,286.10345)"><path
           d="m 115.574,119.844 c 1.684,-2.805 3.828,-4.715 6.699,-5.203 2.539,-1.278 5.926,-0.911 9.942,0.695 3.824,1.176 5.129,3.644 6.004,6.332 -0.281,5.391 -0.176,11.816 -3.965,16.332 -1.418,3.836 -6.125,1.02 -9.277,1.375 -3.457,-1.738 -10.75,-1.516 -8.719,-6.066 4.691,-8.039 -2.731,-7.039 -0.684,-13.465 z"
           style="fill:none;stroke:#b4b4b4;stroke-width:0.25;stroke-linecap:butt;stroke-linejoin:miter;stroke-miterlimit:4;stroke-dasharray:none;stroke-opacity:1"
           id="path1120" /></g><g
         id="g1122"><path
           d="m 121.699,256.029 c 2.938,3.106 7.09,5.434 11.578,7.531 3.77,1.317 4.149,-4.394 5.305,-8.492 1.106,-4.773 -0.961,-8.168 0.059,-13.359 0.183,-4.656 -2.84,-7.344 -8.036,-8.848 -3.378,-0.937 -7.66,-3.734 -8.3,1 -5.379,8.574 -5.098,15.731 -0.606,22.168 z"
           style="fill:url(#radialGradient1128);fill-opacity:1;fill-rule:nonzero;stroke:none"
           id="path1130" /></g><g
         id="g1132"
         transform="matrix(1,0,0,-1,0,286.10345)"><path
           d="m 121.699,30.074 c 2.938,-3.105 7.09,-5.433 11.578,-7.531 3.77,-1.316 4.149,4.395 5.305,8.492 1.106,4.774 -0.961,8.168 0.059,13.36 0.183,4.656 -2.84,7.343 -8.036,8.847 -3.378,0.938 -7.66,3.735 -8.3,-1 -5.379,-8.574 -5.098,-15.73 -0.606,-22.168 z"
           style="fill:none;stroke:#b4b4b4;stroke-width:0.25;stroke-linecap:butt;stroke-linejoin:miter;stroke-miterlimit:4;stroke-dasharray:none;stroke-opacity:1"
           id="path1134" /></g><g
         id="g1136"><path
           d="m 62.699,111.932 c 4.766,1.257 10.18,1.324 13.36,0.363 2.453,-1.141 5.093,-1.656 7.316,-3.543 4.332,-0.16 4.25,-6.418 3.453,-8.996 -1.859,-2.758 -3.949,-6.344 -7.894,-8.289 -3.754,-2.524 -6.016,-2.262 -9.215,-1.539 -3.672,0.027 -7.664,1.738 -8.481,6.988 0.543,3.074 -1.261,7.082 0.274,9.633 0.515,1.34 1.461,2.804 1.187,5.383 z"
           style="fill:url(#radialGradient1142);fill-opacity:1;fill-rule:nonzero;stroke:none"
           id="path1144" /></g><g
         id="g1146"
         transform="matrix(1,0,0,-1,0,286.10345)"><path
           d="m 62.699,174.172 c 4.766,-1.258 10.18,-1.324 13.36,-0.363 2.453,1.14 5.093,1.656 7.316,3.543 4.332,0.16 4.25,6.418 3.453,8.996 -1.859,2.757 -3.949,6.343 -7.894,8.289 -3.754,2.523 -6.016,2.261 -9.215,1.539 -3.672,-0.028 -7.664,-1.738 -8.481,-6.988 0.543,-3.075 -1.261,-7.083 0.274,-9.633 0.515,-1.34 1.461,-2.805 1.187,-5.383 z"
           style="fill:none;stroke:#b4b4b4;stroke-width:0.25;stroke-linecap:butt;stroke-linejoin:miter;stroke-miterlimit:4;stroke-dasharray:none;stroke-opacity:1"
           id="path1148" /></g><g
         id="g1150"><path
           d="m 113.496,118.545 c 6.672,4.234 6.02,-4.969 4.781,-7.77 -0.578,-4.082 -3.523,-5.722 -5.379,-7.172 -2.265,-2.855 -7.757,-2.445 -12.55,-2.39 -3.5,1.972 -9.016,3.144 -11.953,4.781 -3.422,1.453 -2.977,7.059 -2.989,11.633 0.496,3.363 2.481,5.625 4.782,6.894 2.031,1.754 4.695,2.875 8.964,2.391 3.407,-0.973 6.16,-2.605 8.368,-4.781 1.359,-1.133 3.343,-2.645 5.976,-3.586 z"
           style="fill:url(#radialGradient1156);fill-opacity:1;fill-rule:nonzero;stroke:none"
           id="path1158" /></g><g
         id="g1160"
         transform="matrix(1,0,0,-1,0,286.10345)"><path
           d="m 113.496,167.559 c 6.672,-4.235 6.02,4.968 4.781,7.769 -0.578,4.082 -3.523,5.723 -5.379,7.172 -2.265,2.855 -7.757,2.445 -12.55,2.391 -3.5,-1.973 -9.016,-3.145 -11.953,-4.782 -3.422,-1.453 -2.977,-7.058 -2.989,-11.632 0.496,-3.364 2.481,-5.625 4.782,-6.895 2.031,-1.754 4.695,-2.875 8.964,-2.391 3.407,0.973 6.16,2.606 8.368,4.782 1.359,1.132 3.343,2.644 5.976,3.586 z"
           style="fill:none;stroke:#b4b4b4;stroke-width:0.25;stroke-linecap:butt;stroke-linejoin:miter;stroke-miterlimit:4;stroke-dasharray:none;stroke-opacity:1"
           id="path1162" /></g><g
         id="g1164"><path
           d="m 126.52,126.674 c -3.911,-2.879 -8.481,-2.852 -13.559,-3.594 -3.895,-0.281 -6.852,0.66 -8.676,3.078 -3.117,1.297 -4.422,8.27 -1.328,10.074 0.402,1.457 3.707,4.063 3.961,6.547 2.508,2.547 6.098,4.266 10.902,5.055 3.883,0.914 6.227,-1.406 8.137,-3.149 1.164,-2.835 5.754,-4.929 3.027,-9.246 -0.796,-2.543 -3.574,-7.382 -2.464,-8.765 z"
           style="fill:url(#radialGradient1170);fill-opacity:1;fill-rule:nonzero;stroke:none"
           id="path1172" /></g><g
         id="g1174"
         transform="matrix(1,0,0,-1,0,286.10345)"><path
           d="m 126.52,159.43 c -3.911,2.879 -8.481,2.851 -13.559,3.593 -3.895,0.282 -6.852,-0.66 -8.676,-3.078 -3.117,-1.297 -4.422,-8.269 -1.328,-10.074 0.402,-1.457 3.707,-4.062 3.961,-6.547 2.508,-2.547 6.098,-4.265 10.902,-5.054 3.883,-0.915 6.227,1.406 8.137,3.148 1.164,2.836 5.754,4.93 3.027,9.246 -0.796,2.543 -3.574,7.383 -2.464,8.766 z"
           style="fill:none;stroke:#b4b4b4;stroke-width:0.25;stroke-linecap:butt;stroke-linejoin:miter;stroke-miterlimit:4;stroke-dasharray:none;stroke-opacity:1"
           id="path1176" /></g><g
         id="g1178"><path
           d="m 134.379,124.33 c 1.746,-2.238 2.918,-7.355 3.683,-9.242 1.29,-3.481 -0.433,-5.504 -1.574,-6.844 -2.199,-1.898 -4.25,-2.953 -6.629,-3.59 -2.621,-0.754 -4.574,0.071 -6.254,1.028 -1.644,0.957 -2.824,2.562 -3.312,5.128 -0.766,2.458 -2.199,8.458 0,10.254 2.379,1.75 2.633,4.625 7.422,5.024 1.777,-0.113 5.754,-0.391 6.664,-1.758 z"
           style="fill:url(#radialGradient1184);fill-opacity:1;fill-rule:nonzero;stroke:none"
           id="path1186" /></g><g
         id="g1188"
         transform="matrix(1,0,0,-1,0,286.10345)"><path
           d="m 134.379,161.773 c 1.746,2.239 2.918,7.356 3.683,9.243 1.29,3.48 -0.433,5.504 -1.574,6.843 -2.199,1.899 -4.25,2.953 -6.629,3.59 -2.621,0.754 -4.574,-0.07 -6.254,-1.027 -1.644,-0.957 -2.824,-2.563 -3.312,-5.129 -0.766,-2.457 -2.199,-8.457 0,-10.254 2.379,-1.75 2.633,-4.625 7.422,-5.023 1.777,0.113 5.754,0.39 6.664,1.757 z"
           style="fill:none;stroke:#b4b4b4;stroke-width:0.25;stroke-linecap:butt;stroke-linejoin:miter;stroke-miterlimit:4;stroke-dasharray:none;stroke-opacity:1"
           id="path1190" /></g><g
         id="g1192"><path
           d="m 138.004,187.424 c 2.258,-5.043 -0.469,-7.5 -1.285,-11.672 -3.059,-1.754 -6.414,-3.324 -11.559,-3.535 -3.43,0.89 -5.336,2.152 -7.293,4.351 -1.566,3.7 -4.355,8.27 -1.851,12.414 1.097,4.219 3.328,6.914 3.914,10.254 1.648,1.625 6.98,3.203 8.363,0.641 2.555,-1.348 4.242,-2.059 5.617,-5.262 0.184,-3.629 1.84,-4.398 4.094,-7.191 z"
           style="fill:url(#radialGradient1198);fill-opacity:1;fill-rule:nonzero;stroke:none"
           id="path1200" /></g><g
         id="g1202"
         transform="matrix(1,0,0,-1,0,286.10345)"><path
           d="m 138.004,98.68 c 2.258,5.043 -0.469,7.5 -1.285,11.672 -3.059,1.753 -6.414,3.324 -11.559,3.535 -3.43,-0.891 -5.336,-2.153 -7.293,-4.352 -1.566,-3.699 -4.355,-8.269 -1.851,-12.414 1.097,-4.219 3.328,-6.914 3.914,-10.254 1.648,-1.625 6.98,-3.203 8.363,-0.64 2.555,1.347 4.242,2.058 5.617,5.261 0.184,3.629 1.84,4.399 4.094,7.192 z"
           style="fill:none;stroke:#b4b4b4;stroke-width:0.25;stroke-linecap:butt;stroke-linejoin:miter;stroke-miterlimit:4;stroke-dasharray:none;stroke-opacity:1"
           id="path1204" /></g><g
         id="g1206"><path
           d="m 26.738,110.689 c 5.52,-0.504 8.946,-0.168 13.098,0.52 3.684,-1.191 9.352,-0.133 13.73,-2.402 3.496,-1.465 7.418,-5.524 7.805,-8.34 -0.703,-2.489 -1.543,-6.93 -4.965,-10.297 -2.886,-4.32 -7.379,-3.531 -12.281,-3.231 -4.105,1.196 -8.906,-0.226 -12.77,0.778 -3.796,-0.735 -9.886,0.738 -10.539,5.176 -1.746,3.605 0.274,6.101 0.508,10.628 0.488,4.68 -0.742,6.461 5.414,7.168 z"
           style="fill:url(#radialGradient1212);fill-opacity:1;fill-rule:nonzero;stroke:none"
           id="path1214" /></g><g
         id="g1216"
         transform="matrix(1,0,0,-1,0,286.10345)"><path
           d="m 26.738,175.414 c 5.52,0.504 8.946,0.168 13.098,-0.519 3.684,1.191 9.352,0.132 13.73,2.402 3.496,1.465 7.418,5.523 7.805,8.34 -0.703,2.488 -1.543,6.929 -4.965,10.297 -2.886,4.32 -7.379,3.531 -12.281,3.23 -4.105,-1.195 -8.906,0.227 -12.77,-0.777 -3.796,0.734 -9.886,-0.739 -10.539,-5.176 -1.746,-3.606 0.274,-6.102 0.508,-10.629 0.488,-4.68 -0.742,-6.461 5.414,-7.168 z"
           style="fill:none;stroke:#b4b4b4;stroke-width:0.25;stroke-linecap:butt;stroke-linejoin:miter;stroke-miterlimit:4;stroke-dasharray:none;stroke-opacity:1"
           id="path1218" /></g><g
         id="g1220"><path
           d="m 138.023,201.338 c -5.832,-0.961 3.586,0.656 -4.312,0.012 -3.207,-0.372 -5.805,0.125 -8.617,0.023 -3.832,0.09 -6.645,1.242 -9.438,4.5 -2.906,1.578 -4.859,6.793 -4.617,9.129 0.301,2.832 0.559,6.332 1.348,8.781 0.617,2.805 3.152,5.227 5.492,7.942 2.301,4.796 5.746,-1.473 8.281,-1.676 3.434,-3.539 6.652,-4.442 9.145,-9.469 2.453,-3.277 3.984,-6.367 3.074,-8.965 0.254,-2.469 -0.406,-5.168 -1.012,-7.125 0.219,-1.051 0.438,-2.101 0.656,-3.152 z"
           style="fill:url(#radialGradient1226);fill-opacity:1;fill-rule:nonzero;stroke:none"
           id="path1228" /></g><g
         id="g1230"
         transform="matrix(1,0,0,-1,0,286.10345)"><path
           d="m 138.023,84.766 c -5.832,0.961 3.586,-0.657 -4.312,-0.012 -3.207,0.371 -5.805,-0.125 -8.617,-0.024 -3.832,-0.089 -6.645,-1.242 -9.438,-4.5 -2.906,-1.578 -4.859,-6.792 -4.617,-9.128 0.301,-2.832 0.559,-6.332 1.348,-8.782 0.617,-2.804 3.152,-5.226 5.492,-7.941 2.301,-4.797 5.746,1.473 8.281,1.676 3.434,3.539 6.652,4.441 9.145,9.468 2.453,3.278 3.984,6.368 3.074,8.965 0.254,2.469 -0.406,5.168 -1.012,7.125 0.219,1.051 0.438,2.102 0.656,3.153 z"
           style="fill:none;stroke:#b4b4b4;stroke-width:0.25;stroke-linecap:butt;stroke-linejoin:miter;stroke-miterlimit:4;stroke-dasharray:none;stroke-opacity:1"
           id="path1232" /></g><g
         id="g1234"
         transform="matrix(1,0,0,-1,0,286.10345)"><path
           d="m 139.242,15.934 h 16.137 v 183.719 h -16.137 z"
           style="fill:#d7e3f4;fill-opacity:1;fill-rule:evenodd;stroke:#3cabb7;stroke-width:0.258279;stroke-linecap:butt;stroke-linejoin:miter;stroke-miterlimit:4;stroke-dasharray:none;stroke-opacity:1"
           id="path1236" /></g><text
         transform="matrix(1,0,0,-1,98.816154,89.498536)"
         style="font-variant:normal;font-weight:normal;font-size:11.2px;font-family:'DejaVu Sans';-inkscape-font-specification:DejaVuSans;writing-mode:lr-tb;fill:#000000;fill-opacity:1;fill-rule:nonzero;stroke:none"
         id="text1240"><tspan
           x="0"
           y="0"
           id="tspan1238">H</tspan></text><text
         transform="matrix(1,0,0,-1,107.23803,87.258536)"
         style="font-variant:normal;font-weight:normal;font-size:7.2801px;font-family:'DejaVu Sans';-inkscape-font-specification:DejaVuSans;writing-mode:lr-tb;fill:#000000;fill-opacity:1;fill-rule:nonzero;stroke:none"
         id="text1244"><tspan
           x="0"
           y="0"
           id="tspan1242">2</tspan></text><text
         transform="matrix(1,0,0,-1,111.87341,89.498536)"
         style="font-variant:normal;font-weight:normal;font-size:11.2px;font-family:'DejaVu Sans';-inkscape-font-specification:DejaVuSans;writing-mode:lr-tb;fill:#000000;fill-opacity:1;fill-rule:nonzero;stroke:none"
         id="text1248"><tspan
           x="0"
           y="0"
           id="tspan1246">O</tspan></text><text
         transform="matrix(0,1,1,0,16.780534,88.008985)"
         style="font-variant:normal;font-weight:normal;font-size:11.2px;font-family:'DejaVu Sans';-inkscape-font-specification:DejaVuSans;writing-mode:lr-tb;fill:#000000;fill-opacity:1;fill-rule:nonzero;stroke:none"
         id="text1252"><tspan
           x="0 7.8288002 14.6608 21.7616 26.1632 33.017601 36.119999 43.220798 50.108799"
           y="0"
           sodipodi:role="line"
           id="tspan1250">Container</tspan></text></g><g
       id="g1254"><g
         id="g1256"
         clip-path="url(#clipPath1260)"><g
           id="g1262"
           transform="translate(0,-0.896545)"><g
             id="g1264" /><g
             id="g1278"><g
               clip-path="url(#clipPath1268)"
               id="g1276"><g
                 id="g1274"><g
                   transform="matrix(0,-1,0.50206,0,0,287)"
                   id="g1272"><path
                     d="m 7.012,577.55 0.238,1.968 0.234,1.696 0.239,0.988 0.234,0.988 0.238,1.339 0.235,1.027 0.238,0.98 0.238,1.346 0.235,0.98 0.238,1.346 0.234,1.339 0.239,1.299 0.234,1.027 0.238,0.988 0.238,1.027 0.235,0.98 0.238,0.989 0.235,1.027 0.238,1.299 0.195,2.365 0.238,1.307 0.239,0.35 0.234,0.319 0.238,0.351 0.235,0.676 0.238,0.312 h 0.238 l 0.235,0.669 h 0.238 l 0.234,0.319 0.239,0.358 h 0.234 l 0.238,0.311 0.239,0.358 0.234,5.641 0.238,3.345 0.235,2.684 0.238,1.977 0.234,2.365 0.199,1.968 0.239,2.016 0.234,1.657 0.238,1.657 0.235,1.338 0.238,1.027 0.234,0.981 0.239,0.676 0.238,0.67 h 0.234 c 0.246,23.388 0.192,26.655 0.473,1.338 h 0.238 l 0.239,0.63 h 0.234 l 0.238,1.696 0.235,1.338 0.238,1.308 0.234,1.338 0.239,5.998 0.238,3.354 0.195,2.637 0.238,2.685 0.235,2.326 0.238,2.007 0.234,2.015 0.239,2.646 0.234,2.676 0.238,1.346 0.239,2.638 0.234,2.684 0.238,2.684 0.235,3.307 0.238,5.011 0.234,2.015 0.239,1.657 0.238,3.665 0.234,3.664 0.239,1.657 0.234,2.016 0.238,1.657 0.196,2.326 0.238,1.657 0.238,2.008 0.234,1.346 0.239,2.007 0.234,0.988 0.238,1.657 0.239,1.027 0.234,1.65 0.238,0.988 0.235,1.657 0.238,0.358 0.234,1.338 0.477,1.339 0.234,0.63 0.239,1.027 0.234,0.669 0.238,0.677 h 0.235 l 0.238,0.311 0.199,0.669 0.235,0.319 0.238,-0.319 0.234,0.677 0.238,0.669 0.235,-0.358 0.238,0.358 0.238,0.311 0.235,-0.311 0.238,-0.358 0.234,-0.311 0.239,-0.358 h 0.238 l 0.234,-0.63 0.239,-0.358 0.234,-0.669 0.238,-0.669 0.235,-1.346 0.238,-1.299 0.238,-2.008 0.196,-3.983 0.238,-3.673 0.234,6.668 0.238,1.657 0.235,1.658 0.238,0.35 0.234,0.63 h 0.239 l 0.238,-0.311 0.234,-0.669 0.239,0.35 0.234,-0.669 0.238,-1.027 0.239,-0.67 0.234,-0.669 0.238,-0.63 0.235,-1.338 0.238,-1.027 0.234,-1.3 0.239,-1.696 0.238,-1.976 0.195,-1.696 0.238,-3.665 0.235,-6.31 0.238,3.665 0.235,-5.991 0.238,0.669 0.238,0.311 0.234,0.319 0.239,-0.319 0.234,-0.98 0.238,0.311 0.235,-0.311 0.238,0.669 0.238,0.311 0.235,-3.983 0.238,0.63 0.234,1.027 0.239,-1.027 0.234,-0.98 0.238,-4.653 0.2,-2.326 0.234,1.649 0.238,1.346 0.235,1.338 0.238,3.315 0.234,2.007 0.477,3.315 0.234,1.027 0.238,1.299 0.235,1.027 0.238,0.669 0.238,1.346 0.235,0.981 0.238,0.988 0.234,1.338 0.239,1.657 0.234,0.358 0.238,1.338 h 0.239 l 0.234,0.63 0.199,0.358 0.235,-0.358 0.238,0.677 h 0.473 l 0.234,-0.677 h 0.238 l 0.238,0.358 0.235,0.319 0.238,-0.988 0.234,0.311 0.239,-0.311 0.238,-0.669 0.234,-0.319 0.239,-0.669 0.234,-0.669 0.238,-1.027 h 0.473 l 0.238,0.669 h 0.196 l 0.238,-0.988 0.234,-0.311 0.239,-0.669 0.234,-2.016 h 0.238 l 0.238,-1.338 0.235,-1.346 0.238,-2.637 0.235,-1.346 0.238,-0.67 0.234,-0.669 0.238,0.669 0.239,-0.311 0.234,-1.346 0.238,-1.019 0.235,-0.988 0.238,-1.657 0.238,-0.669 0.235,-0.358 0.238,-0.981 0.195,-1.346 0.239,-1.338 0.234,1.027 0.238,0.669 0.239,0.311 0.234,0.358 0.238,-0.358 0.235,-3.306 0.238,-7.026 0.234,1.346 0.239,0.311 0.238,1.338 0.234,0.358 0.238,0.988 0.235,0.312 0.238,-0.981 0.234,0.669 h 0.239 l 0.238,0.312 0.234,-0.312 0.2,0.67 0.234,-0.989 0.238,3.004 0.235,3.983 0.238,-0.677 0.234,-2.007 0.239,-0.988 0.238,-2.996 0.234,-2.684 0.239,8.006 0.234,5.011 0.238,3.353 0.238,3.315 0.235,2.326 0.238,2.007 0.234,1.346 0.239,1.339 0.234,1.657 0.238,0.311 0.239,1.027 0.195,1.657 h 0.238 l 0.235,0.669 0.238,0.67 0.234,0.988 0.239,0.358 0.238,0.63 0.234,0.669 0.239,0.669 0.234,1.027 h 0.238 l 0.235,0.63 0.238,0.358 0.238,0.981 h 0.235 l 0.238,0.676 0.234,0.351 h 0.477 l 0.234,0.669 0.238,0.319 0.196,-0.319 0.238,-0.35 0.234,-0.67 0.239,0.351 0.238,-0.351 0.234,-0.676 h 0.239 l 0.234,-0.312 0.238,-0.358 0.235,-0.311 h 0.238 l 0.238,-0.677 0.235,-0.669 0.238,-0.311 h 0.234 l 0.239,-0.358 0.234,-0.669 0.238,-0.669 0.238,-0.63 0.235,-1.346 0.199,-0.351 0.234,-0.669 0.239,-0.319 0.234,-0.988 0.238,-1.338 0.235,-1.338 0.238,-0.677 0.238,-1.338 0.235,-1.658 0.238,-2.007 0.234,-2.326 0.239,-1.658 0.238,-2.326 0.234,-1.696 0.239,-3.003 0.234,-2.638 0.238,-2.995 0.235,-4.342 0.238,0.988 0.238,2.677 0.234,-3.665 0.2,-7.337 h 0.234 l 0.238,-0.669 0.235,-2.326 0.238,7.337 0.238,14.316 0.235,5.003 0.238,3.003 0.234,2.326 0.239,0.35 0.234,-2.365 0.238,-8.986 0.239,0.35 0.234,1.299 0.238,1.696 0.235,1.346 0.238,1.3 0.238,1.027 0.235,0.669 0.238,0.319 h 0.433 l 0.235,-0.319 0.238,0.319 0.238,-0.319 0.235,-0.669 0.238,-1.027 h 0.234 l 0.239,-1.658 h 0.234 l 0.238,1.339 0.239,0.988 h 0.234 l 0.238,-0.312 0.235,0.67 0.238,2.637 0.234,2.684 0.239,2.016 0.238,2.326 0.234,1.338 0.239,1.299 0.195,0.358 0.238,1.339 0.234,1.346 0.239,0.311 0.238,1.346 0.234,0.311 0.239,0.669 0.234,-0.311 0.238,1.299 0.235,0.358 h 0.238 l 0.238,0.981 0.235,3.353 0.238,2.015 0.234,1.299 0.239,0.358 0.234,0.669 0.238,0.312 h 0.239 l 0.234,0.358 h 0.906 l 0.238,-1.028 0.239,-0.311 0.234,-1.346 0.238,-1.338 0.235,-2.015 0.238,-0.63 0.238,0.63 0.235,1.346 h 0.238 l 0.234,-0.669 0.239,-0.319 0.234,-1.338 0.238,-2.016 0.239,-2.326 0.234,-2.638 0.238,-4.341 0.235,-4.341 0.199,-0.67 0.234,-1.338 0.238,-1.346 0.239,-0.98 0.234,-0.988 0.238,-3.354 0.235,-2.007 0.238,-3.003 0.234,-0.981 h 0.239 l 0.238,-1.346 0.234,-0.669 0.239,1.696 0.234,-0.35 0.238,1.65 0.235,1.696 0.238,3.672 0.238,1.969 0.235,-0.312 0.238,-0.357 0.195,-0.67 h 0.239 l 0.234,-0.63 h 0.476 l 0.235,-1.027 0.238,0.358 0.234,-0.677 0.239,-0.35 0.234,-0.319 0.238,-0.35 h 0.239 l 0.234,-0.677 0.238,-0.98 h 0.235 l 0.238,-0.669 0.234,-0.677 0.239,-1.3 0.238,-1.338 0.234,-1.346 0.239,-0.98 0.195,-1.346 0.238,-1.338 0.235,-0.989 0.238,-1.696 0.238,-1.657 0.234,-1.338 0.239,-2.645 0.234,-2.677 0.238,0.311 0.239,3.042 0.234,4.653 0.238,3.665 0.235,3.983 0.238,2.327 0.234,2.365 0.239,2.326 0.238,1.657 0.234,2.016 0.239,1.657 0.234,1.657 0.199,0.35 0.235,0.988 0.238,0.988 0.238,0.351 0.235,0.988 0.238,-2.996 0.234,1.338 0.238,1.346 0.235,0.981 0.238,1.346 0.238,0.98 0.235,0.358 0.238,1.338 0.234,0.319 0.239,1.338 0.238,0.319 0.234,0.351 0.239,0.676 0.234,0.67 0.238,0.311 0.196,0.319 0.238,-0.63 h 0.473 l 0.238,-0.358 0.234,-0.312 0.239,-0.676 0.234,-0.351 0.238,-0.319 0.235,-0.35 0.238,-0.677 0.238,-1.968 0.234,-1.338 0.239,-0.988 0.234,-0.669 0.238,-2.327 0.235,-1.027 0.238,-0.669 0.238,-1.657 0.235,-1.346 0.238,-1.657 0.195,-1.65 0.239,-1.696 0.234,-1.976 0.238,-1.027 0.239,-1.969 0.234,-1.338 0.238,-1.657 0.235,-2.365 0.238,0.35 0.238,0.669 0.234,0.677 0.239,-0.358 h 0.234 l 0.238,-0.319 0.235,0.677 0.238,9.974 0.238,4.342 0.235,0.98 0.238,1.027 0.234,-0.358 0.2,-7.329 0.234,3.346 0.238,2.015 0.239,0.988 0.234,1.657 0.238,-0.677 0.235,-0.669 0.238,-4.964 0.234,0.669 0.239,0.311 0.238,0.67 0.234,0.988 h 0.473 l 0.238,1.027 0.238,0.669 0.235,0.319 0.238,-0.319 h 0.234 l 0.239,-0.35 h 0.234 l 0.199,-1.346 0.235,-0.988 0.238,-0.981 0.238,-1.696 0.235,-0.669 0.238,-1.307 0.234,-0.35 0.239,0.98 0.234,0.358 0.238,-2.684 0.239,1.346 0.234,0.98 0.238,0.677 0.235,-1.307 0.238,-0.669 0.238,-1.696 0.234,-1.969 0.239,1.657 0.234,1.339 0.238,0.988 0.196,1.338 0.238,0.319 0.238,1.338 0.235,0.669 0.238,0.358 0.234,0.311 0.239,-0.311 h 0.472 l 0.239,0.311 0.234,0.319 0.238,-0.988 0.235,-0.311 h 0.238 l 0.234,-0.358 0.238,-0.319 0.239,-1.019 h 0.234 l 0.238,-0.319 0.235,-0.358 0.238,-0.311 0.195,-0.669 0.239,-0.988 0.238,-1.339 0.234,-1.657 0.239,-1.027 0.234,-0.669 0.238,2.365 0.235,2.646 0.238,2.007 0.238,2.015 0.235,0.669 0.238,0.981 0.234,-1.339 0.239,-2.995 0.238,-12.659 0.234,0.98 0.238,1.027 0.235,0.631 0.238,5.01 0.235,-1.657 0.199,-1.338 0.234,1.657 0.238,2.365 0.239,0.319 0.234,-1.657 0.238,-0.358 0.235,-0.988 h 0.238 l 0.234,-0.669 0.239,-1.338 0.238,-1.346 0.234,-1.3 0.239,-1.027 0.234,-1.657 0.238,-2.676 0.239,-1.307 0.234,0.676 0.238,0.312 0.235,-0.312 0.238,0.312 0.234,0.988 0.199,0.35 h 0.239 l 0.234,0.319 0.238,0.358 h 0.235 L 157,682.22 h 0.473 l 0.238,0.311 0.234,0.358 h 0.473 l 0.238,7.648 0.235,2.015 0.238,1.969 0.238,1.346 0.235,7.018 0.238,2.995 0.234,2.327 0.238,2.326 0.196,0.677 0.238,0.98 0.238,0.358 0.235,0.319 h 0.238 l 0.234,-0.319 0.239,-1.338 0.238,-2.015 0.234,-2.327 0.239,-3.314 0.234,-4.692 0.238,1.027 0.235,1.3 0.238,1.027 0.238,0.988 0.235,0.98 0.238,1.027 0.234,0.988 0.239,0.669 0.234,0.669 0.238,0.989 0.196,1.027 0.238,1.299 0.238,2.684 0.234,3.665 0.239,1.338 0.234,0.988 0.238,1.338 0.235,-0.311 0.238,-0.669 h 0.238 l 0.235,0.669 0.238,-0.669 0.234,-1.346 0.477,-1.338 0.234,-1.339 0.239,-0.319 0.234,-1.027 0.238,-0.98 h 0.235 l 0.199,-0.988 0.238,-1.027 0.234,-0.669 0.239,-1.299 0.234,-1.027 0.238,-5.999 0.235,-4.334 0.238,-4.341 0.238,-3.665 0.235,-9.313 0.238,5.329 0.234,2.327 0.239,2.007 0.234,2.684 0.238,-3.034 0.239,-5.33 0.234,-3.306 0.238,-7.337 0.235,5.322 0.238,16.681 0.195,8.636 0.238,4.03 0.239,2.327 0.234,1.657 0.238,2.007 0.235,0.669 0.476,3.315 0.235,0.669 0.238,1.027 h 0.234 l 0.239,0.311 0.234,0.319 h 0.238 l 0.239,-0.63 0.234,-0.669 0.238,-0.358 0.235,-0.988 0.238,-0.98 0.234,-0.67 0.239,-2.015 0.195,-1.657 0.238,-2.365 0.238,-2.326 0.235,-1.977 0.238,-2.995 0.235,-4.023 0.238,-3.983 0.238,-0.669 0.234,-1.339 0.239,-1.346 0.234,-0.98 0.238,-1.027 0.235,-1.299 0.238,-1.346 0.238,-1.339 0.235,-1.657 0.238,-1.657 0.234,-2.015 0.239,-2.677 0.234,-10.651 h 0.199 l 0.239,0.319 0.234,-0.319 h 0.473 l 0.238,-0.35 0.234,0.35 0.238,-0.35 0.239,-0.319 h 0.234 l 0.238,-0.669 h 0.473 l 0.238,-0.669 0.235,-0.319 H 188 l 0.234,-0.67 0.239,-0.357 0.234,-0.312 0.238,-0.669 0.239,-0.358 0.195,-0.319 0.238,-0.669 0.235,-0.311 0.238,-1.027 h 0.234 l 0.477,-1.338 0.234,-0.988 0.238,-0.669 0.235,-0.319 0.238,-1.339 0.234,-1.346 0.239,-0.669 0.238,-0.98 0.234,-1.346 0.239,-0.669 0.234,-1.658 0.238,-1.657 0.235,-0.669 0.238,-2.015 0.195,-1.649 0.239,-1.346 0.238,-2.327 0.234,-2.326 0.239,-2.996 0.234,-4.341 0.238,-3.665 0.238,-5.368 0.235,-0.981 0.238,-0.988 0.235,-1.027 0.238,-0.988 0.234,-1.649 0.238,-1.346 0.239,-3.665 0.234,-7.018 0.238,-14.993 0.235,-5.679 0.238,-7.291 h 0.234"
                     style="fill:#b2b2b2;fill-opacity:1;fill-rule:nonzero;stroke:#0000ff;stroke-width:0.236636;stroke-linecap:butt;stroke-linejoin:round;stroke-miterlimit:10;stroke-dasharray:none;stroke-opacity:1"
                     id="path1270" /></g></g></g></g></g></g></g><g
       id="g1280"><g
         id="g1282"
         clip-path="url(#clipPath1286)"><g
           id="g1288"
           transform="translate(0,-0.896545)"><g
             id="g1290" /><g
             id="g1304"><g
               clip-path="url(#clipPath1294)"
               id="g1302"><g
                 id="g1300"><g
                   transform="matrix(0,-1,0.728127,0,0,287)"
                   id="g1298"><path
                     d="m 6.762,553.898 h 17.644 l 0.239,0.435 0.234,-0.435 0.238,0.435 0.235,-0.435 h 4.699 l 0.238,0.435 0.234,-0.435 h 0.438 l 0.234,0.435 0.239,-0.435 h 0.472 l 0.239,0.435 h 0.472 l 0.238,-0.435 h 3.274 l 0.238,0.435 0.238,-0.435 h 13.856 l 0.238,0.87 0.235,0.826 0.238,0.831 0.234,0.392 0.477,0.869 0.234,-0.435 0.238,-0.434 0.239,0.434 0.234,-0.434 0.238,-0.392 0.239,-0.434 0.234,-0.397 h 0.238 l 0.235,-0.435 h 0.238 l 0.238,-0.391 0.196,-0.435 h 0.711 l 0.238,-0.435 1.066,0.435 0.59,0.826 0.238,1.266 0.239,0.392 0.234,1.266 0.238,1.261 0.239,2.489 0.234,2.527 0.238,2.918 0.235,3.316 0.238,3.358 0.199,2.918 0.234,4.979 0.239,1.695 0.238,1.658 0.234,0.832 h 0.239 l 0.234,0.429 0.238,3.75 0.239,9.989 0.234,-1.223 0.238,-1.261 h 0.239 l 0.234,2.092 h 0.238 l 0.239,0.392 0.234,0.434 0.238,1.658 h 0.235 l 0.238,0.832 0.238,1.26 0.195,1.658 h 0.239 l 0.234,-3.315 0.238,-5.011 0.239,0.826 0.234,1.658 0.238,2.527 0.239,3.315 0.234,4.582 0.238,-7.066 0.239,-2.527 0.234,-5.407 0.238,-2.49 0.235,-3.353 0.238,-1.657 0.238,-0.832 0.234,-2.527 0.239,-0.397 0.238,-0.826 0.234,-1.695 0.2,-0.832 0.234,-0.397 h 0.238 l 0.239,-0.826 0.234,-0.869 0.238,-0.397 0.239,-0.434 0.234,-0.827 0.238,-0.831 0.238,-0.435 0.235,-0.826 0.238,-0.397 0.234,-0.434 h 0.239 l 0.238,-0.392 h 0.234 l 0.239,-0.435 h 0.238 l 0.234,-0.831 h 0.477 l 0.195,0.397 h 0.239 l 0.234,0.434 h 0.238 l 0.238,0.435 0.235,0.826 0.238,0.397 0.238,0.435 0.235,0.391 0.238,0.435 h 0.238 l 0.235,0.434 0.238,0.832 0.234,0.392 0.239,0.434 0.238,0.397 0.234,0.869 0.239,0.392 0.238,0.434 0.234,2.055 0.199,0.869 0.235,0.392 0.476,1.663 0.235,1.261 0.238,1.657 0.238,1.696 0.235,1.228 0.238,1.695 0.234,2.49 0.239,2.092 0.238,2.484 0.234,3.358 0.239,2.919 0.238,2.924 0.234,3.315 0.239,4.576 0.238,4.185 0.234,-1.658 0.238,-2.527 0.235,4.185 0.199,8.766 h 0.238 l 0.235,1.657 0.238,2.093 0.238,-10.424 0.235,-17.092 0.238,-5.446 0.234,-3.315 0.239,-3.358 h 0.238 l 0.234,2.092 0.239,12.119 0.238,-0.435 0.234,-2.092 0.477,-3.315 0.234,-1.696 0.238,-0.831 0.235,-0.392 0.238,-1.7 0.199,0.434 0.235,-0.434 0.238,1.266 0.238,-0.832 h 0.235 l 0.238,0.832 0.234,0.434 0.239,2.05 0.238,0.869 0.234,1.223 0.238,-2.484 0.239,-1.266 0.234,-0.392 0.238,0.392 h 0.239 l 0.234,-3.75 0.238,-3.316 0.235,-2.526 0.238,-2.919 0.238,-0.831 0.235,-1.658 0.199,-1.658 0.234,-1.266 0.239,-1.261 0.238,-0.831 0.234,-0.826 0.238,-0.832 h 0.239 l 0.234,-1.261 h 0.477 l 0.234,-0.397 0.238,-1.695 0.235,-3.315 0.238,-3.75 0.238,-0.435 0.235,-0.397 0.238,-0.869 0.238,-0.826 h 0.235 l 0.238,0.434 0.195,-1.266 0.238,0.435 h 0.473 l 0.238,-2.092 h 0.239 l 0.234,0.831 0.238,1.261 0.239,0.831 0.234,0.827 0.238,-1.658 0.235,-2.092 h 0.476 l 0.235,1.266 0.238,1.223 0.238,1.695 0.235,2.489 0.238,3.316 0.238,4.619 0.234,5.842 0.2,-0.434 0.234,0.434 0.238,0.826 0.239,0.397 0.234,1.267 0.238,2.918 0.239,2.489 0.234,1.261 0.238,1.658 0.238,0.831 0.235,1.261 0.238,2.092 0.235,-0.434 0.238,-0.827 0.238,-0.831 0.234,-1.261 0.239,-5.804 0.238,-0.435 0.234,-3.353 0.239,-3.321 0.195,-1.658 0.238,-0.434 0.239,-0.826 0.234,-0.832 0.238,-0.826 0.238,-0.435 0.235,-1.266 0.238,-0.391 0.235,0.826 h 0.238 l 0.238,-0.435 0.234,0.435 0.239,0.434 0.238,0.832 0.234,0.826 0.239,0.397 0.238,1.261 0.234,0.831 0.239,2.093 0.234,2.092 0.238,0.397 0.199,1.695 0.235,2.093 0.238,1.223 0.238,1.657 0.235,2.924 0.238,2.092 0.234,2.919 0.239,2.924 0.238,-0.832 0.234,-5.011 0.239,-6.673 0.238,-4.576 0.234,-3.359 0.239,-3.75 0.238,-1.658 0.234,-2.092 0.239,-0.831 h 0.234 l 0.238,3.358 0.238,-0.832 h 0.196 l 0.238,-0.434 0.238,-1.261 0.235,-0.397 0.238,-0.434 0.234,3.358 0.239,-1.701 0.238,-0.826 0.234,-1.658 0.239,-1.266 0.238,-0.826 0.234,-1.223 0.239,-0.869 0.238,-0.832 0.234,-1.223 0.238,-0.869 0.235,-0.826 0.238,-0.397 0.238,-0.435 0.235,-0.826 0.199,-0.434 0.234,-0.397 0.239,0.397 0.238,-0.397 0.234,-0.435 h 0.477 l 0.234,0.832 h 0.477 l 0.234,0.434 0.238,2.092 0.235,0.392 0.238,1.266 0.238,0.826 0.235,1.266 0.238,2.093 0.238,1.223 0.235,1.695 0.238,2.489 0.238,2.093 0.196,1.657 0.238,-2.923 0.234,0.434 0.239,0.832 0.238,0.826 0.234,1.266 0.238,0.397 0.239,1.695 0.234,-1.695 0.238,-2.055 0.239,-2.092 0.234,-1.266 0.238,-0.826 0.235,-0.435 0.238,-2.489 0.238,-4.576 0.235,-4.185 0.238,-1.658 h 0.238 l 0.235,0.392 0.199,10.858 0.234,-0.831 0.238,0.397 0.239,-0.397 0.234,-1.658 0.238,0.832 0.239,0.391 0.234,6.674 0.238,-0.831 0.239,-0.392 0.234,-0.832 0.238,-0.869 0.235,-0.826 0.238,0.826 0.238,-1.223 h 0.235 l 0.238,-0.434 h 0.238 l 0.235,0.434 h 0.238 l 0.238,0.832 0.195,1.26 0.239,0.832 0.234,0.826 0.238,1.658 0.239,0.831 0.351,2.307 0.356,1.443 0.238,0.832 0.238,4.614 0.235,1.663 0.238,0.391 h 0.238 l 0.235,2.924 0.238,2.527 0.238,2.918 0.234,5.408 0.239,0.832 0.234,1.26 h 0.238 l 0.2,-1.26 0.234,-1.658 0.238,-0.435 0.239,-1.223 0.234,-0.434 h 0.238 l 0.235,-0.832 0.238,0.435 0.238,0.397 0.235,-0.397 h 0.238 l 0.238,0.831 h 0.234 l 0.239,0.392 0.238,0.434 0.234,0.397 0.239,0.435 0.234,0.826 h 0.238 l 0.239,0.435 0.234,1.223 0.199,0.434 0.238,1.267 0.235,2.049 0.238,1.701 0.235,1.223 0.238,1.26 0.238,-3.315 0.234,-3.353 0.239,-2.489 0.238,-2.919 0.234,-1.266 0.239,-0.826 0.238,1.658 0.234,2.918 0.239,17.092 0.234,-1.223 0.238,-1.261 0.239,-2.489 0.234,-5.842 0.238,1.658 0.196,2.092 0.238,-1.695 0.238,-1.658 0.234,-1.658 0.239,2.919 0.238,0.397 0.234,0.869 0.239,0.391 0.238,0.435 0.234,1.658 0.239,1.266 0.234,2.054 0.238,1.696 0.239,1.223 0.234,2.924 0.238,2.918 0.238,-0.391 0.235,-0.435 0.238,-0.832 0.238,-0.397 0.235,-0.429 0.199,-0.434 h 0.473 l 0.238,-0.397 h 0.234 l 0.239,-1.261 0.238,-0.397 0.234,-0.435 0.239,0.435 h 0.472 l 0.238,-0.869 0.235,-8.723 0.238,-2.527 0.238,-2.924 0.235,-3.75 0.238,-7.065 0.238,-3.788 0.235,-2.924 0.238,-2.054 0.195,-2.087 0.239,-0.435 0.238,-0.831 0.234,-0.826 h 0.239 l 0.238,0.826 0.234,1.657 0.238,2.093 0.239,3.358 0.234,4.576 0.238,5.842 0.235,-1.657 0.238,-0.869 0.356,-2.27 0.355,-1.48 0.238,-1.658 0.235,-0.826 0.238,-0.832 0.238,-1.658 0.235,-1.26 0.199,-0.832 0.234,-2.092 0.238,-4.185 0.239,-2.918 0.234,-1.663 0.238,-2.092 0.235,-0.827 0.238,0.435 h 0.711 l 0.238,0.392 0.235,0.831 0.238,1.695 0.238,0.832 0.235,0.397 0.238,1.695 0.234,1.223 0.239,0.832 0.238,0.864 0.195,0.831 0.238,1.223 0.239,1.266 0.234,1.658 0.238,0.826 0.235,7.109 0.238,5.407 0.238,4.62 0.235,4.973 0.238,10.461 0.238,-5.016 0.235,-3.353 0.238,-2.489 0.238,-3.353 0.235,3.353 0.238,6.673 0.234,4.582 0.238,9.195 0.239,-6.277 0.234,-23.369 0.199,-8.723 0.239,-5.016 0.234,-2.527 0.238,-2.483 0.239,-1.267 0.234,-2.092 0.238,-1.658 0.235,-1.223 0.238,-1.7 0.238,-0.827 0.235,-0.831 h 0.238 l 0.238,0.434 0.234,-0.434 0.239,0.434 0.238,1.224 0.234,-0.392 0.594,4.163 0.551,4.598 0.238,2.054 0.235,2.093 0.238,4.184 0.238,3.75 0.235,4.582 0.238,5.01 0.238,1.658 0.234,1.658 0.239,0.869 0.238,1.223 0.234,1.701 0.239,1.658 0.234,2.092 0.238,1.223 0.239,1.695 0.234,2.924 0.238,2.055 0.239,3.353 0.234,13.777 0.199,-0.435 h 0.235 l 0.238,0.435 h 0.472 l 0.239,0.831 0.238,-0.434 0.234,0.434 0.239,0.392 h 0.238 l 0.234,0.434 0.239,0.832 h 0.234 l 0.238,0.391 0.239,0.435 h 0.234 l 0.238,0.435 0.239,1.223 0.234,0.434 h 0.238 l 0.238,0.832 0.196,0.826 0.238,0.434 0.234,0.397 0.239,0.435 0.238,1.261 0.234,0.397 0.239,1.26 0.238,0.397 0.234,1.261 0.239,0.435 0.234,1.228 0.238,0.826 0.239,1.696 0.234,0.831 0.238,1.261 0.238,1.663 0.235,1.658 0.238,1.658 0.238,1.695 0.235,2.055 0.199,1.695 0.234,2.489 0.239,2.918 0.238,2.093 0.234,3.315 0.239,6.277 0.234,4.582 0.238,7.103 0.239,0.831 0.234,1.223 0.238,1.266 0.238,1.261 0.235,1.658 0.238,2.092 0.238,3.75 0.235,-8.331 0.238,-12.12 0.234,-24.157 0.239,-50.059 0.261,-65.906"
                     style="fill:#64a0ff;fill-opacity:1;fill-rule:nonzero;stroke:#0000ff;stroke-width:0.236861;stroke-linecap:butt;stroke-linejoin:round;stroke-miterlimit:10;stroke-dasharray:none;stroke-opacity:1"
                     id="path1296" /></g></g></g></g></g></g></g><g
       id="g1306"><g
         id="g1308"
         transform="matrix(1,0,0,-1,0,286.10345)"><path
           d="m 221.43,14.848 h 31.637 V 198.461 H 221.43 Z"
           style="fill:#d7e3f4;fill-opacity:1;fill-rule:evenodd;stroke:#3cabb7;stroke-width:0.361545;stroke-linecap:butt;stroke-linejoin:miter;stroke-miterlimit:4;stroke-dasharray:none;stroke-opacity:1"
           id="path1310" /></g><text
         transform="matrix(1,0,0,-1,257.4757,171.41875)"
         style="font-variant:normal;font-weight:normal;font-size:32px;font-family:'DejaVu Sans';-inkscape-font-specification:DejaVuSans;writing-mode:lr-tb;fill:#000000;fill-opacity:1;fill-rule:nonzero;stroke:none"
         id="text1314"><tspan
           x="0 107.2 -76.863998"
           y="0"
           sodipodi:role="line"
           id="tspan1312">++=</tspan></text><text
         transform="matrix(0.82092513,0.57103584,0.57103584,-0.82092513,143.23377,3.929006)"
         style="font-style:oblique;font-variant:normal;font-size:32px;font-family:'DejaVu Sans Oblique';-inkscape-font-specification:DejaVuSans-Oblique;writing-mode:lr-tb;fill:#000000;fill-opacity:1;fill-rule:nonzero;stroke:none"
         id="text1318"><tspan
           x="0"
           y="0"
           id="tspan1316">l</tspan></text><text
         transform="matrix(0.82092512,0.57103585,0.57103585,-0.82092512,154.17411,3.743028)"
         style="font-style:oblique;font-variant:normal;font-size:20.8003px;font-family:'DejaVu Sans Oblique';-inkscape-font-specification:DejaVuSans-Oblique;writing-mode:lr-tb;fill:#000000;fill-opacity:1;fill-rule:nonzero;stroke:none"
         id="text1322"><tspan
           x="0 14.539405 27.227583 40.41497 48.589485 61.319263 67.080948 80.268333 93.060509"
           y="0"
           sodipodi:role="line"
           id="tspan1320">Container</tspan></text><text
         transform="matrix(0.78622063,0.61794588,0.61794588,-0.78622063,268.69205,25.859504)"
         style="font-style:oblique;font-variant:normal;font-size:32px;font-family:'DejaVu Sans Oblique';-inkscape-font-specification:DejaVuSans-Oblique;writing-mode:lr-tb;fill:#000000;fill-opacity:1;fill-rule:nonzero;stroke:none"
         id="text1326"><tspan
           x="0"
           y="0"
           id="tspan1324">l</tspan></text><text
         transform="matrix(0.78622065,0.61794586,0.61794586,-0.78622065,279.62461,26.311961)"
         style="font-style:oblique;font-variant:normal;font-size:20.8003px;font-family:'DejaVu Sans Oblique';-inkscape-font-specification:DejaVuSans-Oblique;writing-mode:lr-tb;fill:#000000;fill-opacity:1;fill-rule:nonzero;stroke:none"
         id="text1330"><tspan
           x="0 13.187386 25.917166 39.104549"
           y="0"
           sodipodi:role="line"
           id="tspan1328">Sand</tspan></text><text
         transform="matrix(0.77740891,0.62899554,0.62899554,-0.77740891,417.80005,25.477695)"
         style="font-style:oblique;font-variant:normal;font-size:32px;font-family:'DejaVu Sans Oblique';-inkscape-font-specification:DejaVuSans-Oblique;writing-mode:lr-tb;fill:#000000;fill-opacity:1;fill-rule:nonzero;stroke:none"
         id="text1334"><tspan
           x="0"
           y="0"
           id="tspan1332">l</tspan></text><text
         transform="matrix(0.7774089,0.62899556,0.62899556,-0.7774089,428.72512,26.084613)"
         style="font-style:oblique;font-variant:normal;font-size:20.8003px;font-family:'DejaVu Sans Oblique';-inkscape-font-specification:DejaVuSans-Oblique;writing-mode:lr-tb;fill:#000000;fill-opacity:1;fill-rule:nonzero;stroke:none"
         id="text1338"><tspan
           x="0 15.62102 28.850006"
           y="0"
           sodipodi:role="line"
           id="tspan1336">H2O</tspan></text></g></g></svg>
